<svg viewBox="-768 -380 1536 760" width="1536" height="760" style="background-color: rgb(255, 255, 255);" xmlns="http://www.w3.org/2000/svg"><path d="M-86.26301144063072,59.105043839020716L-89.39569495395105,58.60022471290526M-89.39569495395105,-120.15939940335586L-89.39569495395105,58.60022471290526M-89.39569495395105,58.60022471290526L-122.58255611405808,85.99997186954303M-86.26301144063072,-119.65458027724038L-86.26301144063072,59.105043839020716M-86.26301144063072,59.105043839020716L-119.44987260073773,86.50479099565851M-11.423309838995497,36.07047771133061L-14.55599335231583,35.56565858521516M-14.55599335231583,-97.05413857794062L-14.55599335231583,35.56565858521516M-14.55599335231583,35.56565858521516L-72.11491718287996,83.08747608874623M-11.423309838995497,-96.54931945182517L-11.423309838995497,36.07047771133061M-11.423309838995497,36.07047771133061L-68.98223366955963,83.5922952148617M58.83275752670406,57.4066227355315L55.70007401338373,56.90180360941604M55.70007401338373,-110.75090571276135L55.70007401338373,56.90180360941604M55.70007401338373,56.90180360941604L-17.063644015766165,116.97700826818536M58.83275752670406,-110.24608658664587L58.83275752670406,57.4066227355315M58.83275752670406,57.4066227355315L-13.930960502445831,117.48182739430084M126.28300301914456,74.59450096096468L123.15031950582423,74.08968183484922M123.15031950582423,-115.66631890490115L123.15031950582423,74.08968183484922M123.15031950582423,74.08968183484922L40.79345102460671,142.08518650494358" style="fill:none;stroke:rgb(0,0,0);stroke-width:1;stroke-linecap:round"></path><path d="M-122.58255611405808,85.99997186954303L-89.39569495395105,58.60022471290527L-86.26301144063073,59.10504383902073zM-86.26301144063073,59.10504383902073L-89.39569495395105,58.60022471290527L-89.39569495395106,-120.15939940335586z" style="fill:rgb(238,238,238); fill-opacity: 0.4"></path><path d="M126.28300301914454,-115.16149977878567L126.28300301914456,74.59450096096468M126.28300301914456,74.59450096096468L43.92613453792704,142.59000563105903" style="fill:none;stroke:rgb(0,0,0);stroke-width:1;stroke-linecap:round"></path><path d="M-11.423309838995493,36.07047771133061L-14.555993352315827,35.56565858521516L-14.555993352315827,-97.05413857794062zM58.832757526704064,57.406622735531506L55.70007401338373,56.90180360941604L55.70007401338373,-110.75090571276135zM-11.423309838995493,-96.54931945182517L-11.423309838995493,36.07047771133061L-14.555993352315827,-97.05413857794062zM-119.44987260073776,86.5047909956585L-122.58255611405808,85.99997186954303L-86.26301144063073,59.10504383902073zM-86.26301144063075,-119.6545802772404L-86.26301144063073,59.10504383902073L-89.39569495395106,-120.15939940335586zM-119.44987260073776,86.5047909956585L-86.26301144063073,59.10504383902073L-86.26301144063075,-119.6545802772404zM126.28300301914456,74.59450096096468L123.15031950582423,74.08968183484923L123.1503195058242,-115.66631890490115zM-72.11491718287996,83.08747608874623L-14.555993352315827,35.56565858521516L-11.423309838995493,36.07047771133061z" style="fill:rgb(238,238,238); fill-opacity: 0.4"></path><path d="M-27.875705496354172,20.647946919765303L-31.008389009674506,20.14312779364984M-31.008389009674506,4.1989667986479295L-31.008389009674506,20.14312779364984M-31.008389009674506,20.14312779364984L-37.92838713879643,25.856418910505063M-29.442046199064958,4.451376076956392L-29.442046199064958,20.395537071958305M-29.442046199064958,20.395537071958305L-36.36204432818687,26.108828188813533M-29.442046199064958,20.395537071958305L32.093951962036925,31.190926248996643M-27.875705496354172,4.703785924763389L-27.875705496354172,20.647946919765303M-27.875705496354172,20.647946919765303L-34.7957036254761,26.361238036620527" style="fill:none;stroke:rgb(0,0,0);stroke-width:1;stroke-linecap:round"></path><path d="M58.832757526704064,-110.2460865866459L58.832757526704064,57.406622735531506L55.70007401338373,-110.75090571276135z" style="fill:rgb(238,238,238); fill-opacity: 0.4"></path><path d="M186.13085669183175,80.54262449004045L182.99817317851142,80.03780536392499M182.99817317851142,-96.78859896323573L182.99817317851142,80.03780536392499M182.99817317851142,80.03780536392499L106.25293788473283,143.40023160789653" style="fill:none;stroke:rgb(0,0,0);stroke-width:1;stroke-linecap:round"></path><path d="M-27.875705496354172,20.647946919765303L-31.008389009674506,20.143127793649843L-31.008389009674506,4.19896679864793z" style="fill:rgb(153,221,255); fill-opacity: 0.4"></path><path d="M186.13085669183175,-96.28377983712025L186.13085669183175,80.54262449004045M186.13085669183175,80.54262449004045L109.38562139805319,143.905050734012" style="fill:none;stroke:rgb(0,0,0);stroke-width:1;stroke-linecap:round"></path><path d="M-48.641978015275214,13.547559030001997h34.2478626470486v17.1239313235243h-34.2478626470486z" style="fill:rgb(255,255,255)"></path><path d="M-27.875705496354172,4.70378592476339L-27.875705496354172,20.647946919765303L-31.008389009674506,4.19896679864793zM-37.928387138796424,25.85641891050507L-31.008389009674506,20.143127793649843L-27.875705496354172,20.647946919765303z" style="fill:rgb(153,221,255); fill-opacity: 0.4"></path><path d="M-11.423309838995497,-96.54931945182517L-14.55599335231583,-97.05413857794062M-14.55599335231583,-97.05413857794062L-72.11491718287996,-49.53232107440956M-27.875705496354172,4.703785924763389L-31.008389009674506,4.1989667986479295M-31.008389009674506,4.1989667986479295L-37.92838713879643,9.912257915503151M-29.442046199064958,4.451376076956392L-36.36204432818687,10.164667193811617M-29.442046199064958,4.451376076956392L32.093951962036925,31.190926248996643M-11.423309838995497,-96.54931945182517L-68.98223366955963,-49.027501948294095M-27.875705496354172,4.703785924763389L-34.7957036254761,10.417077041618612" style="fill:none;stroke:rgb(0,0,0);stroke-width:1;stroke-linecap:round"></path><path d="M-29.442047253014337,4.451376361705661L-29.442047253014337,20.395537356707575L-36.36204538213626,26.108828473562802z" style="fill:rgb(255,187,187); fill-opacity: 0.4"></path><path d="M-34.795703625476094,26.36123803662053L-27.875705496354172,20.647946919765303L-27.875705496354172,4.70378592476339z" style="fill:rgb(153,221,255); fill-opacity: 0.4"></path><path d="M-17.063644015766165,116.97700826818536L55.70007401338373,56.90180360941604L58.832757526704064,57.406622735531506z" style="fill:rgb(238,238,238); fill-opacity: 0.4"></path><path d="M-31.008389009674506,4.19896679864793L-31.008389009674506,20.143127793649843L-37.928387138796424,9.912257915503154zM-34.795703625476094,26.36123803662053L-37.928387138796424,25.85641891050507L-27.875705496354172,20.647946919765303zM-31.008389009674506,20.143127793649843L-37.928387138796424,25.85641891050507L-37.928387138796424,9.912257915503154zM-34.795703625476094,10.417077041618615L-27.875705496354172,4.70378592476339L-31.008389009674506,4.19896679864793z" style="fill:rgb(153,221,255); fill-opacity: 0.4"></path><path d="M-29.442047253014337,20.395537356707575L-29.442047253014337,4.451376361705661L32.093952114307086,31.190926239886767z" style="fill:rgb(255,187,187); fill-opacity: 0.4"></path><path d="M-68.98223366955963,83.5922952148617L-11.423309838995493,36.07047771133061L-11.423309838995493,-96.54931945182517z" style="fill:rgb(238,238,238); fill-opacity: 0.4"></path><path d="M48.841259315097744,-26.072633886746658L45.7085758017774,-26.577453012862115M45.7085758017774,-36.14394960986326L45.7085758017774,-26.577453012862115M45.7085758017774,-26.577453012862115L41.556576924304245,-23.14947834274898M47.274918278575946,-35.89154152310694L47.274918278575946,-26.32504416582896M47.274918278575946,-26.32504416582896L43.12291940110279,-22.897069495715826M47.274918278575946,-26.32504416582896L111.0581867824273,-23.616962589618847" style="fill:none;stroke:rgb(0,0,0);stroke-width:1;stroke-linecap:round"></path><path d="M-29.442047253014337,4.451376361705661L-36.36204538213626,26.108828473562802L-36.36204538213626,10.164667478560885z" style="fill:rgb(255,187,187); fill-opacity: 0.4"></path><path d="M-37.92838713879643,9.912257915503151L-37.92838713879643,25.856418910505063M-37.92838713879643,25.856418910505063L-34.7957036254761,26.361238036620527M-122.58255611405808,-92.75965224671808L-122.58255611405808,85.99997186954303M-122.58255611405808,85.99997186954303L-119.44987260073773,86.50479099565851" style="fill:none;stroke:rgb(0,0,0);stroke-width:1;stroke-linecap:round"></path><path d="M-89.39569495395105,58.60022471290527L-122.58255611405808,85.99997186954303L-122.58255611405808,-92.75965224671808zM-89.39569495395106,-120.15939940335586L-89.39569495395105,58.60022471290527L-122.58255611405808,-92.75965224671808z" style="fill:rgb(238,238,238); fill-opacity: 0.4"></path><path d="M-86.26301144063072,-119.65458027724038L-89.39569495395105,-120.15939940335586M-89.39569495395105,-120.15939940335586L-122.58255611405808,-92.75965224671808" style="fill:none;stroke:rgb(0,0,0);stroke-width:1;stroke-linecap:round"></path><path d="M-36.36204538213626,26.108828473562802L-29.442047253014337,20.395537356707575L32.093952114307086,31.190926239886767z" style="fill:rgb(255,187,187); fill-opacity: 0.4"></path><path d="M48.841259315097744,-35.6391304837478L48.841259315097744,-26.072633886746658M48.841259315097744,-26.072633886746658L44.68926043762458,-22.644659216633517" style="fill:none;stroke:rgb(0,0,0);stroke-width:1;stroke-linecap:round"></path><path d="M-34.795703625476094,10.417077041618615L-34.795703625476094,26.36123803662053L-27.875705496354172,4.70378592476339z" style="fill:rgb(153,221,255); fill-opacity: 0.4"></path><path d="M-36.36204432818687,26.108828188813533L-36.36204432818687,10.164667193811617M-36.36204432818687,26.108828188813533L32.093951962036925,31.190926248996643" style="fill:none;stroke:rgb(0,0,0);stroke-width:1;stroke-linecap:round"></path><path d="M48.841259315097744,-26.072633886746658L45.7085758017774,-26.57745301286212L45.7085758017774,-36.14394960986326z" style="fill:rgb(153,221,255); fill-opacity: 0.4"></path><path d="M-34.7957036254761,10.417077041618612L-34.7957036254761,26.361238036620527" style="fill:none;stroke:rgb(0,0,0);stroke-width:1;stroke-linecap:round"></path><path d="M29.458986422001104,-34.31567999988102h34.24786264704855v17.1239313235243h-34.24786264704855z" style="fill:rgb(255,255,255)"></path><path d="M-119.44987260073776,-92.25483312060263L-119.44987260073773,86.50479099565851M-86.26301144063072,-119.65458027724038L-119.44987260073776,-92.25483312060263" style="fill:none;stroke:rgb(0,0,0);stroke-width:1;stroke-linecap:round"></path><path d="M-37.928387138796424,9.912257915503154L-34.795703625476094,10.417077041618615L-31.008389009674506,4.19896679864793zM41.55657692430425,-23.14947834274898L45.7085758017774,-26.57745301286212L48.841259315097744,-26.072633886746658zM48.841259315097744,-35.639130483747806L48.841259315097744,-26.072633886746658L45.7085758017774,-36.14394960986326zM-37.928387138796424,25.85641891050507L-34.795703625476094,26.36123803662053L-34.795703625476094,10.417077041618615z" style="fill:rgb(153,221,255); fill-opacity: 0.4"></path><path d="M48.841259315097744,-35.6391304837478L45.7085758017774,-36.14394960986326M45.7085758017774,-36.14394960986326L41.556576924304245,-32.715974939750126M47.274918278575946,-35.89154152310694L43.12291940110279,-32.463566852993814M47.274918278575946,-35.89154152310694L111.0581867824273,-23.616962589618847" style="fill:none;stroke:rgb(0,0,0);stroke-width:1;stroke-linecap:round"></path><path d="M126.28300301914454,-115.16149977878568L126.28300301914456,74.59450096096468L123.1503195058242,-115.66631890490115z" style="fill:rgb(238,238,238); fill-opacity: 0.4"></path><path d="M47.27491755843757,-35.89154004680554L47.27491755843757,-26.32504344980439L43.12291868096442,-22.89706877969125z" style="fill:rgb(255,187,187); fill-opacity: 0.4"></path><path d="M-140.90814515411256,86.35339539149791h34.247862647048706v17.123931323524275h-34.247862647048706z" style="fill:rgb(255,255,255)"></path><path d="M48.841259315097744,-35.6391304837478L44.68926043762458,-32.21115581363467" style="fill:none;stroke:rgb(0,0,0);stroke-width:1;stroke-linecap:round"></path><path d="M-29.442047253014337,4.451376361705661L-36.36204538213626,10.164667478560885L32.093952114307086,31.190926239886767z" style="fill:rgb(255,187,187); fill-opacity: 0.4"></path><path d="M-37.928387138796424,9.912257915503154L-37.928387138796424,25.85641891050507L-34.795703625476094,10.417077041618615zM45.7085758017774,-36.14394960986326L45.7085758017774,-26.57745301286212L41.55657692430425,-32.71597493975013zM44.68926043762458,-22.64465921663352L48.841259315097744,-26.072633886746658L48.841259315097744,-35.639130483747806zM44.68926043762458,-22.64465921663352L41.55657692430425,-23.14947834274898L48.841259315097744,-26.072633886746658z" style="fill:rgb(153,221,255); fill-opacity: 0.4"></path><path d="M-37.92838713879643,9.912257915503151L-34.7957036254761,10.417077041618612" style="fill:none;stroke:rgb(0,0,0);stroke-width:1;stroke-linecap:round"></path><path d="M45.7085758017774,-26.57745301286212L41.55657692430425,-23.14947834274898L41.55657692430425,-32.71597493975013z" style="fill:rgb(153,221,255); fill-opacity: 0.4"></path><path d="M-106.85520112444256,-7.48870059933374L-109.9878846377629,-7.9935197254492M-109.9878846377629,-43.07067391445341L-109.9878846377629,-7.9935197254492M-109.9878846377629,-7.9935197254492L-125.21188052183113,4.575720731632292" style="fill:none;stroke:rgb(0,0,0);stroke-width:1;stroke-linecap:round"></path><path d="M44.68926043762458,-32.21115581363467L48.841259315097744,-35.639130483747806L45.7085758017774,-36.14394960986326z" style="fill:rgb(153,221,255); fill-opacity: 0.4"></path><path d="M-36.36204432818687,10.164667193811617L32.093951962036925,31.190926248996643M-108.42153904494162,-42.818264177859966L-108.42153904494162,-7.741109228578911M-108.42153904494162,-7.741109228578911L-123.64553459903863,4.828130956071626M-108.42153904494162,-7.741109228578911L-61.90668086223211,1.1750195828413807" style="fill:none;stroke:rgb(0,0,0);stroke-width:1;stroke-linecap:round"></path><path d="M-36.36204538213626,10.164667478560885L-36.36204538213626,26.108828473562802L32.093952114307086,31.190926239886767z" style="fill:rgb(255,187,187); fill-opacity: 0.4"></path><path d="M-53.48597670566053,0.008285717298544881h34.24786264704855v17.1239313235243h-34.24786264704855z" style="fill:rgb(255,255,255)"></path><path d="M-106.85520112444256,-42.565854788337944L-106.85520112444256,-7.48870059933374M-106.85520112444256,-7.48870059933374L-122.07919700851079,5.080539857747753M58.83275752670406,-110.24608658664587L55.70007401338373,-110.75090571276135M55.70007401338373,-110.75090571276135L-17.063644015766165,-50.67570105399202M41.556576924304245,-32.715974939750126L41.556576924304245,-23.14947834274898M41.556576924304245,-23.14947834274898L44.68926043762458,-22.644659216633517" style="fill:none;stroke:rgb(0,0,0);stroke-width:1;stroke-linecap:round"></path><path d="M47.27491755843757,-35.89154004680554L43.12291868096442,-22.89706877969125L43.12291868096442,-32.4635653766924z" style="fill:rgb(255,187,187); fill-opacity: 0.4"></path><path d="M43.12291940110279,-22.897069495715826L43.12291940110279,-32.463566852993814M43.12291940110279,-22.897069495715826L111.0581867824273,-23.616962589618847" style="fill:none;stroke:rgb(0,0,0);stroke-width:1;stroke-linecap:round"></path><path d="M44.68926043762458,-32.21115581363467L44.68926043762458,-22.64465921663352L48.841259315097744,-35.639130483747806z" style="fill:rgb(153,221,255); fill-opacity: 0.4"></path><path d="M58.83275752670406,-110.24608658664587L-13.930960502445831,-50.170881927876565" style="fill:none;stroke:rgb(0,0,0);stroke-width:1;stroke-linecap:round"></path><path d="M41.55657692430425,-32.71597493975013L44.68926043762458,-32.21115581363467L45.7085758017774,-36.14394960986326z" style="fill:rgb(153,221,255); fill-opacity: 0.4"></path><path d="M44.68926043762458,-32.21115581363467L44.68926043762458,-22.644659216633517" style="fill:none;stroke:rgb(0,0,0);stroke-width:1;stroke-linecap:round"></path><path d="M47.27491755843757,-26.32504344980439L47.27491755843757,-35.89154004680554L111.05818912070859,-23.61696305309436z" style="fill:rgb(255,187,187); fill-opacity: 0.4"></path><path d="M41.55657692430425,-23.14947834274898L44.68926043762458,-22.64465921663352L44.68926043762458,-32.21115581363467zM41.55657692430425,-32.71597493975013L41.55657692430425,-23.14947834274898L44.68926043762458,-32.21115581363467z" style="fill:rgb(153,221,255); fill-opacity: 0.4"></path><path d="M186.13085669183175,80.54262449004047L182.99817317851142,80.03780536392499L182.99817317851142,-96.7885989632357z" style="fill:rgb(238,238,238); fill-opacity: 0.4"></path><path d="M-106.85520112444257,-7.488700599333735L-109.9878846377629,-7.993519725449196L-109.9878846377629,-43.0706739144534z" style="fill:rgb(153,221,255); fill-opacity: 0.4"></path><path d="M43.12291868096442,-22.89706877969125L47.27491755843757,-26.32504344980439L111.05818912070859,-23.61696305309436z" style="fill:rgb(255,187,187); fill-opacity: 0.4"></path><path d="M41.556576924304245,-32.715974939750126L44.68926043762458,-32.21115581363467" style="fill:none;stroke:rgb(0,0,0);stroke-width:1;stroke-linecap:round"></path><path d="M40.793451024606696,142.08518650494358L123.15031950582423,74.08968183484923L126.28300301914456,74.59450096096468z" style="fill:rgb(238,238,238); fill-opacity: 0.4"></path><path d="M43.12291940110279,-32.463566852993814L111.0581867824273,-23.616962589618847M248.78452695823842,90.63900701234965L245.65184344491806,90.1341878862342M245.65184344491806,-86.6922164409265L245.65184344491806,90.1341878862342M245.65184344491806,90.1341878862342L168.90660815113944,153.49661413020576" style="fill:none;stroke:rgb(0,0,0);stroke-width:1;stroke-linecap:round"></path><path d="M47.27491755843757,-35.89154004680554L43.12291868096442,-32.4635653766924L111.05818912070859,-23.61696305309436z" style="fill:rgb(255,187,187); fill-opacity: 0.4"></path><path d="M25.998987357440118,-45.808779336955126h34.2478626470486v17.1239313235243h-34.2478626470486z" style="fill:rgb(255,255,255)"></path><path d="M-14.555993352315827,-97.05413857794062L-14.555993352315827,35.56565858521516L-72.11491718287996,-49.532321074409545z" style="fill:rgb(238,238,238); fill-opacity: 0.4"></path><path d="M248.78452695823842,-86.18739731481102L248.78452695823842,90.63900701234965M248.78452695823842,90.63900701234965L172.0392916644598,154.00143325632123" style="fill:none;stroke:rgb(0,0,0);stroke-width:1;stroke-linecap:round"></path><path d="M43.12291868096442,-32.4635653766924L43.12291868096442,-22.89706877969125L111.05818912070859,-23.61696305309436z" style="fill:rgb(255,187,187); fill-opacity: 0.4"></path><path d="M-106.85520112444257,-42.565854788337944L-106.85520112444257,-7.488700599333735L-109.9878846377629,-43.0706739144534z" style="fill:rgb(153,221,255); fill-opacity: 0.4"></path><path d="M-13.930960502445831,117.48182739430081L58.832757526704064,57.406622735531506L58.832757526704064,-110.2460865866459z" style="fill:rgb(238,238,238); fill-opacity: 0.4"></path><path d="M-125.21188052183113,4.575720731632296L-109.9878846377629,-7.993519725449196L-106.85520112444257,-7.488700599333735z" style="fill:rgb(153,221,255); fill-opacity: 0.4"></path><path d="M-106.85520112444256,-42.565854788337944L-109.9878846377629,-43.07067391445341M-109.9878846377629,-43.07067391445341L-125.21188052183113,-30.501433457371917" style="fill:none;stroke:rgb(0,0,0);stroke-width:1;stroke-linecap:round"></path><path d="M-131.77347252083683,-11.161113818983912h34.247862647048706v17.123931323524296h-34.247862647048706z" style="fill:rgb(255,255,255)"></path><path d="M-108.42153904494162,-42.818264177859966L-123.64553459903863,-30.249023993209427M-108.42153904494162,-42.818264177859966L-61.90668086223211,1.1750195828413807" style="fill:none;stroke:rgb(0,0,0);stroke-width:1;stroke-linecap:round"></path><path d="M-68.98223366955963,83.5922952148617L-72.11491718287996,83.08747608874623L-11.423309838995493,36.07047771133061z" style="fill:rgb(238,238,238); fill-opacity: 0.4"></path><path d="M-106.85520112444256,-42.565854788337944L-122.07919700851079,-29.99661433125646" style="fill:none;stroke:rgb(0,0,0);stroke-width:1;stroke-linecap:round"></path><path d="M-108.42154288110274,-42.818264351395676L-108.42154288110274,-7.741110162391467L-123.64553876517095,4.828130294690024z" style="fill:rgb(255,187,187); fill-opacity: 0.4"></path><path d="M-122.07919700851082,5.080539857747755L-106.85520112444257,-7.488700599333735L-106.85520112444257,-42.565854788337944z" style="fill:rgb(153,221,255); fill-opacity: 0.4"></path><path d="M-122.58255611405808,85.99997186954303L-119.44987260073776,86.5047909956585L-119.44987260073776,-92.25483312060261zM-119.44987260073776,-92.25483312060261L-86.26301144063075,-119.6545802772404L-89.39569495395106,-120.15939940335586zM-119.44987260073776,-92.25483312060261L-119.44987260073776,86.5047909956585L-86.26301144063075,-119.6545802772404z" style="fill:rgb(238,238,238); fill-opacity: 0.4"></path><path d="M-109.9878846377629,-43.0706739144534L-109.9878846377629,-7.993519725449196L-125.21188052183113,-30.501433457371917z" style="fill:rgb(153,221,255); fill-opacity: 0.4"></path><path d="M126.28300301914454,-115.16149977878567L123.15031950582423,-115.66631890490115M123.15031950582423,-115.66631890490115L40.793451024606696,-47.67081423480679" style="fill:none;stroke:rgb(0,0,0);stroke-width:1;stroke-linecap:round"></path><path d="M-122.07919700851082,5.080539857747755L-125.21188052183113,4.575720731632296L-106.85520112444257,-7.488700599333735z" style="fill:rgb(153,221,255); fill-opacity: 0.4"></path><path d="M126.28300301914454,-115.16149977878567L43.926134537927034,-47.16599510869133" style="fill:none;stroke:rgb(0,0,0);stroke-width:1;stroke-linecap:round"></path><path d="M-122.07919700851082,-29.996614331256453L-106.85520112444257,-42.565854788337944L-109.9878846377629,-43.0706739144534zM-109.9878846377629,-7.993519725449196L-125.21188052183113,4.575720731632296L-125.21188052183113,-30.501433457371917z" style="fill:rgb(153,221,255); fill-opacity: 0.4"></path><path d="M-68.98223366955963,-49.02750194829409L-11.423309838995493,-96.54931945182517L-14.555993352315827,-97.05413857794062z" style="fill:rgb(238,238,238); fill-opacity: 0.4"></path><path d="M-108.42154288110274,-7.741110162391467L-108.42154288110274,-42.818264351395676L-61.906682324104864,1.1750195625697577z" style="fill:rgb(255,187,187); fill-opacity: 0.4"></path><path d="M186.13085669183175,-96.28377983712025L186.13085669183175,80.54262449004047L182.99817317851142,-96.7885989632357z" style="fill:rgb(238,238,238); fill-opacity: 0.4"></path><path d="M-130.94476564082976,-125.85003449209616h34.247862647048706v17.123931323524328h-34.247862647048706z" style="fill:rgb(255,255,255)"></path><path d="M248.78452695823844,90.63900701234965L245.65184344491806,90.1341878862342L245.65184344491806,-86.69221644092649zM55.70007401338373,-110.75090571276135L55.70007401338373,56.90180360941604L-17.063644015766165,-50.67570105399202zM43.92613453792704,142.59000563105903L126.28300301914456,74.59450096096468L126.28300301914454,-115.16149977878568zM-14.555993352315827,35.56565858521516L-72.11491718287996,83.08747608874623L-72.11491718287996,-49.532321074409545z" style="fill:rgb(238,238,238); fill-opacity: 0.4"></path><path d="M-108.42154288110274,-42.818264351395676L-123.64553876517095,4.828130294690024L-123.64553876517095,-30.24902389431419z" style="fill:rgb(255,187,187); fill-opacity: 0.4"></path><path d="M-122.07919700851082,-29.996614331256453L-122.07919700851082,5.080539857747755L-106.85520112444257,-42.565854788337944z" style="fill:rgb(153,221,255); fill-opacity: 0.4"></path><path d="M-125.21188052183113,-30.501433457371917L-125.21188052183113,4.575720731632292M-125.21188052183113,4.575720731632292L-122.07919700851079,5.080539857747753M-123.64553459903863,4.828130956071626L-123.64553459903863,-30.249023993209427M-123.64553459903863,4.828130956071626L-61.90668086223211,1.1750195828413807" style="fill:none;stroke:rgb(0,0,0);stroke-width:1;stroke-linecap:round"></path><path d="M-123.64553876517095,4.828130294690024L-108.42154288110274,-7.741110162391467L-61.906682324104864,1.1750195625697577z" style="fill:rgb(255,187,187); fill-opacity: 0.4"></path><path d="M-122.07919700851079,-29.99661433125646L-122.07919700851079,5.080539857747753" style="fill:none;stroke:rgb(0,0,0);stroke-width:1;stroke-linecap:round"></path><path d="M-151.69019531989795,-9.775878812616009h34.247862647048706v17.123931323524296h-34.247862647048706z" style="fill:rgb(255,255,255)"></path><path d="M-125.21188052183113,-30.501433457371917L-122.07919700851082,-29.996614331256453L-109.9878846377629,-43.0706739144534z" style="fill:rgb(153,221,255); fill-opacity: 0.4"></path><path d="M106.25293788473283,143.40023160789656L182.99817317851142,80.03780536392499L186.13085669183175,80.54262449004047z" style="fill:rgb(238,238,238); fill-opacity: 0.4"></path><path d="M-125.21188052183113,4.575720731632296L-122.07919700851082,5.080539857747755L-122.07919700851082,-29.996614331256453z" style="fill:rgb(153,221,255); fill-opacity: 0.4"></path><path d="M-13.930960502445831,117.48182739430081L-17.063644015766165,116.97700826818536L58.832757526704064,57.406622735531506zM-122.58255611405808,-92.75965224671808L-122.58255611405808,85.99997186954303L-119.44987260073776,-92.25483312060261zM-122.58255611405808,-92.75965224671808L-119.44987260073776,-92.25483312060261L-89.39569495395106,-120.15939940335586z" style="fill:rgb(238,238,238); fill-opacity: 0.4"></path><path d="M-125.21188052183113,-30.501433457371917L-125.21188052183113,4.575720731632296L-122.07919700851082,-29.996614331256453z" style="fill:rgb(153,221,255); fill-opacity: 0.4"></path><path d="M-108.42154288110274,-42.818264351395676L-123.64553876517095,-30.24902389431419L-61.906682324104864,1.1750195625697577z" style="fill:rgb(255,187,187); fill-opacity: 0.4"></path><path d="M-140.7694700886952,-30.838909058575375h34.24786264704849v17.12393132352429h-34.24786264704849z" style="fill:rgb(255,255,255)"></path><path d="M-125.21188052183113,-30.501433457371917L-122.07919700851079,-29.99661433125646" style="fill:none;stroke:rgb(0,0,0);stroke-width:1;stroke-linecap:round"></path><path d="M-68.29109537442304,-92.68374275912569h34.2478626470486v17.123931323524275h-34.2478626470486z" style="fill:rgb(255,255,255)"></path><path d="M-123.64553459903863,-30.249023993209427L-61.90668086223211,1.1750195828413807" style="fill:none;stroke:rgb(0,0,0);stroke-width:1;stroke-linecap:round"></path><path d="M-123.64553876517095,-30.24902389431419L-123.64553876517095,4.828130294690024L-61.906682324104864,1.1750195625697577z" style="fill:rgb(255,187,187); fill-opacity: 0.4"></path><path d="M-68.98223366955963,-49.02750194829409L-68.98223366955963,83.5922952148617L-11.423309838995493,-96.54931945182517z" style="fill:rgb(238,238,238); fill-opacity: 0.4"></path><path d="M186.13085669183175,-96.28377983712025L182.99817317851142,-96.78859896323573M182.99817317851142,-96.78859896323573L106.25293788473283,-33.42617271926413M186.13085669183175,-96.28377983712025L109.38562139805319,-32.92135359314867" style="fill:none;stroke:rgb(0,0,0);stroke-width:1;stroke-linecap:round"></path><path d="M-13.930960502445831,-50.17088192787655L58.832757526704064,-110.2460865866459L55.70007401338373,-110.75090571276135zM248.78452695823844,-86.18739731481104L248.78452695823844,90.63900701234965L245.65184344491806,-86.69221644092649z" style="fill:rgb(238,238,238); fill-opacity: 0.4"></path><path d="M-72.11491718287996,-49.53232107440956L-72.11491718287996,83.08747608874623M-72.11491718287996,83.08747608874623L-68.98223366955963,83.5922952148617" style="fill:none;stroke:rgb(0,0,0);stroke-width:1;stroke-linecap:round"></path><path d="M123.1503195058242,-115.66631890490115L123.15031950582423,74.08968183484923L40.79345102460669,-47.67081423480678z" style="fill:rgb(238,238,238); fill-opacity: 0.4"></path><path d="M-68.98223366955963,-49.027501948294095L-68.98223366955963,83.5922952148617M95.22557919818863,-13.765857343264008L92.0928956848683,-14.270676469379469M92.0928956848683,-23.83717306638062L92.0928956848683,-14.270676469379469M92.0928956848683,-14.270676469379469L87.94089680739515,-10.842701799266333M93.65923572923487,-23.584763314245723L93.65923572923487,-14.01826671724458M93.65923572923487,-14.01826671724458L89.5072368517617,-10.590292047131445M93.65923572923487,-14.01826671724458L153.68874123628797,-4.909570861466985" style="fill:none;stroke:rgb(0,0,0);stroke-width:1;stroke-linecap:round"></path><path d="M-90.44050724219647,83.44090471811609h34.24786264704849v17.123931323524275h-34.24786264704849z" style="fill:rgb(255,255,255)"></path><path d="M95.22557919818863,-23.332353940265154L95.22557919818863,-13.765857343264008M95.22557919818863,-13.765857343264008L91.07358032071548,-10.337882673150872" style="fill:none;stroke:rgb(0,0,0);stroke-width:1;stroke-linecap:round"></path><path d="M95.22557919818864,-13.76585734326401L92.0928956848683,-14.27067646937947L92.0928956848683,-23.83717306638061z" style="fill:rgb(153,221,255); fill-opacity: 0.4"></path><path d="M75.84330630509191,-22.008903456398365h34.247862647048706v17.1239313235243h-34.247862647048706z" style="fill:rgb(255,255,255)"></path><path d="M109.38562139805319,143.905050734012L186.13085669183175,80.54262449004047L186.13085669183175,-96.28377983712025zM55.70007401338373,56.90180360941604L-17.063644015766165,116.97700826818536L-17.063644015766165,-50.67570105399202z" style="fill:rgb(238,238,238); fill-opacity: 0.4"></path><path d="M87.94089680739513,-10.84270179926633L92.0928956848683,-14.27067646937947L95.22557919818864,-13.76585734326401zM95.22557919818864,-23.332353940265154L95.22557919818864,-13.76585734326401L92.0928956848683,-23.83717306638061z" style="fill:rgb(153,221,255); fill-opacity: 0.4"></path><path d="M95.22557919818863,-23.332353940265154L92.0928956848683,-23.83717306638062M92.0928956848683,-23.83717306638062L87.94089680739515,-20.40919839626748" style="fill:none;stroke:rgb(0,0,0);stroke-width:1;stroke-linecap:round"></path><path d="M168.9066081511395,153.49661413020576L245.65184344491806,90.1341878862342L248.78452695823844,90.63900701234965z" style="fill:rgb(238,238,238); fill-opacity: 0.4"></path><path d="M93.65923572923487,-23.584763314245723L89.5072368517617,-20.15678864413259M93.65923572923487,-23.584763314245723L153.68874123628797,-4.909570861466985" style="fill:none;stroke:rgb(0,0,0);stroke-width:1;stroke-linecap:round"></path><path d="M93.65923744152848,-23.584763503322883L93.65923744152848,-14.018266906321738L89.50723856405531,-10.590292236208597z" style="fill:rgb(255,187,187); fill-opacity: 0.4"></path><path d="M95.22557919818863,-23.332353940265154L91.07358032071548,-19.90437927015202" style="fill:none;stroke:rgb(0,0,0);stroke-width:1;stroke-linecap:round"></path><path d="M92.0928956848683,-23.83717306638061L92.0928956848683,-14.27067646937947L87.94089680739513,-20.40919839626748zM91.07358032071548,-10.337882673150869L95.22557919818864,-13.76585734326401L95.22557919818864,-23.332353940265154z" style="fill:rgb(153,221,255); fill-opacity: 0.4"></path><path d="M43.92613453792704,142.59000563105903L40.793451024606696,142.08518650494358L126.28300301914456,74.59450096096468z" style="fill:rgb(238,238,238); fill-opacity: 0.4"></path><path d="M-122.58255611405808,-92.75965224671808L-119.44987260073776,-92.25483312060263" style="fill:none;stroke:rgb(0,0,0);stroke-width:1;stroke-linecap:round"></path><path d="M91.07358032071548,-10.337882673150869L87.94089680739513,-10.84270179926633L95.22557919818864,-13.76585734326401zM92.0928956848683,-14.27067646937947L87.94089680739513,-10.84270179926633L87.94089680739513,-20.40919839626748zM91.07358032071548,-19.90437927015202L95.22557919818864,-23.332353940265154L92.0928956848683,-23.83717306638061z" style="fill:rgb(153,221,255); fill-opacity: 0.4"></path><path d="M87.94089680739515,-20.40919839626748L87.94089680739515,-10.842701799266333M87.94089680739515,-10.842701799266333L91.07358032071548,-10.337882673150872" style="fill:none;stroke:rgb(0,0,0);stroke-width:1;stroke-linecap:round"></path><path d="M-72.11491718287996,-49.532321074409545L-68.98223366955963,-49.02750194829409L-14.555993352315827,-97.05413857794062z" style="fill:rgb(238,238,238); fill-opacity: 0.4"></path><path d="M93.65923744152848,-23.584763503322883L89.50723856405531,-10.590292236208597L89.50723856405531,-20.15678883320975z" style="fill:rgb(255,187,187); fill-opacity: 0.4"></path><path d="M89.5072368517617,-10.590292047131445L89.5072368517617,-20.15678864413259M89.5072368517617,-10.590292047131445L153.68874123628797,-4.909570861466985" style="fill:none;stroke:rgb(0,0,0);stroke-width:1;stroke-linecap:round"></path><path d="M91.07358032071548,-19.90437927015202L91.07358032071548,-10.337882673150869L95.22557919818864,-23.332353940265154zM87.94089680739513,-20.40919839626748L91.07358032071548,-19.90437927015202L92.0928956848683,-23.83717306638061z" style="fill:rgb(153,221,255); fill-opacity: 0.4"></path><path d="M91.07358032071548,-19.90437927015202L91.07358032071548,-10.337882673150872" style="fill:none;stroke:rgb(0,0,0);stroke-width:1;stroke-linecap:round"></path><path d="M87.94089680739513,-10.84270179926633L91.07358032071548,-10.337882673150869L91.07358032071548,-19.90437927015202zM87.94089680739513,-20.40919839626748L87.94089680739513,-10.84270179926633L91.07358032071548,-19.90437927015202z" style="fill:rgb(153,221,255); fill-opacity: 0.4"></path><path d="M87.94089680739515,-20.40919839626748L91.07358032071548,-19.90437927015202" style="fill:none;stroke:rgb(0,0,0);stroke-width:1;stroke-linecap:round"></path><path d="M93.65923744152848,-14.018266906321738L93.65923744152848,-23.584763503322883L153.68873700562804,-4.9095711308746175z" style="fill:rgb(255,187,187); fill-opacity: 0.4"></path><path d="M89.5072368517617,-20.15678864413259L153.68874123628797,-4.909570861466985" style="fill:none;stroke:rgb(0,0,0);stroke-width:1;stroke-linecap:round"></path><path d="M89.50723856405531,-10.590292236208597L93.65923744152848,-14.018266906321738L153.68873700562804,-4.9095711308746175z" style="fill:rgb(255,187,187); fill-opacity: 0.4"></path><path d="M72.38330724053101,-33.50200279347248h34.2478626470486v17.1239313235243h-34.2478626470486z" style="fill:rgb(255,255,255)"></path><path d="M-72.11491718287996,83.08747608874623L-68.98223366955963,83.5922952148617L-68.98223366955963,-49.02750194829409z" style="fill:rgb(238,238,238); fill-opacity: 0.4"></path><path d="M93.65923744152848,-23.584763503322883L89.50723856405531,-20.15678883320975L153.68873700562804,-4.9095711308746175zM89.50723856405531,-20.15678883320975L89.50723856405531,-10.590292236208597L153.68873700562804,-4.9095711308746175z" style="fill:rgb(255,187,187); fill-opacity: 0.4"></path><path d="M248.78452695823842,-86.18739731481102L245.65184344491806,-86.6922164409265M245.65184344491806,-86.6922164409265L168.90660815113944,-23.329790196954924M248.78452695823842,-86.18739731481102L172.0392916644598,-22.824971070839467" style="fill:none;stroke:rgb(0,0,0);stroke-width:1;stroke-linecap:round"></path><path d="M-5.637425108016359,-100.10381143842835h34.2478626470486v17.123931323524275h-34.2478626470486z" style="fill:rgb(255,255,255)"></path><path d="M43.926134537927034,-47.16599510869133L126.28300301914454,-115.16149977878568L123.1503195058242,-115.66631890490115zM182.99817317851142,-96.7885989632357L182.99817317851142,80.03780536392499L106.25293788473283,-33.42617271926414zM-13.930960502445831,-50.17088192787655L-13.930960502445831,117.48182739430081L58.832757526704064,-110.2460865866459zM172.03929166445982,154.0014332563212L248.78452695823844,90.63900701234965L248.78452695823844,-86.18739731481104z" style="fill:rgb(238,238,238); fill-opacity: 0.4"></path><path d="M-101.22255740798194,10.381539724663412h34.2478626470486v17.12393132352429h-34.2478626470486z" style="fill:rgb(255,255,255)"></path><path d="M123.15031950582423,74.08968183484923L40.793451024606696,142.08518650494358L40.79345102460669,-47.67081423480678z" style="fill:rgb(238,238,238); fill-opacity: 0.4"></path><path d="M-17.063644015766165,-50.67570105399202L-17.063644015766165,116.97700826818536M-17.063644015766165,116.97700826818536L-13.930960502445831,117.48182739430084" style="fill:none;stroke:rgb(0,0,0);stroke-width:1;stroke-linecap:round"></path><path d="M-72.11491718287996,-49.532321074409545L-72.11491718287996,83.08747608874623L-68.98223366955963,-49.02750194829409zM109.38562139805319,143.905050734012L106.25293788473283,143.40023160789656L186.13085669183175,80.54262449004047z" style="fill:rgb(238,238,238); fill-opacity: 0.4"></path><path d="M-13.930960502445831,-50.170881927876565L-13.930960502445831,117.48182739430084" style="fill:none;stroke:rgb(0,0,0);stroke-width:1;stroke-linecap:round"></path><path d="M-35.38923195800352,117.33043027175265h34.24786264704857v17.123931323524328h-34.24786264704857z" style="fill:rgb(255,255,255)"></path><path d="M308.8669762294594,166.6077061405449L287.1528687213465,163.1085665913332M287.15286872134647,-80.02774848183488L287.1528687213465,163.1085665913332M287.1528687213465,163.1085665913332L277.55971430962416,171.0288698718296" style="fill:none;stroke:rgb(0,0,0);stroke-width:1;stroke-linecap:round"></path><path d="M-17.063644015766165,-50.67570105399202L-13.930960502445831,-50.17088192787655L55.70007401338373,-110.75090571276135z" style="fill:rgb(238,238,238); fill-opacity: 0.4"></path><path d="M308.8669762294594,-76.52860893262313L308.8669762294594,166.6077061405449M308.8669762294594,166.6077061405449L299.27382181773703,174.52800942104136" style="fill:none;stroke:rgb(0,0,0);stroke-width:1;stroke-linecap:round"></path><path d="M109.38562139805319,-32.92135359314867L186.13085669183175,-96.28377983712025L182.99817317851142,-96.7885989632357zM277.55971430962416,171.0288698718296L287.1528687213465,163.1085665913332L308.8669762294594,166.6077061405449z" style="fill:rgb(238,238,238); fill-opacity: 0.4"></path><path d="M-72.11491718287996,-49.53232107440956L-68.98223366955963,-49.027501948294095" style="fill:none;stroke:rgb(0,0,0);stroke-width:1;stroke-linecap:round"></path><path d="M245.65184344491806,-86.69221644092649L245.65184344491806,90.1341878862342L168.9066081511395,-23.32979019695493z" style="fill:rgb(238,238,238); fill-opacity: 0.4"></path><path d="M57.01624515839032,-101.05907915619855h34.2478626470486v17.123931323524275h-34.2478626470486zM262.5393645285834,171.73633133748268h34.24786264704849v17.123931323524328h-34.24786264704849z" style="fill:rgb(255,255,255)"></path><path d="M-17.063644015766165,116.97700826818536L-13.930960502445831,117.48182739430081L-13.930960502445831,-50.17088192787655zM182.99817317851142,80.03780536392499L106.25293788473283,143.40023160789656L106.25293788473283,-33.42617271926414zM43.926134537927034,-47.16599510869133L43.92613453792704,142.59000563105903L126.28300301914454,-115.16149977878568zM299.27382181773703,174.52800942104133L277.55971430962416,171.0288698718296L308.8669762294594,166.6077061405449zM172.03929166445982,154.0014332563212L168.9066081511395,153.49661413020576L248.78452695823844,90.63900701234965z" style="fill:rgb(238,238,238); fill-opacity: 0.4"></path><path d="M277.55971430962416,-72.10744520133842L277.55971430962416,171.0288698718296M277.55971430962416,171.0288698718296L299.27382181773703,174.52800942104136M40.793451024606696,-47.67081423480679L40.79345102460671,142.08518650494358M40.79345102460671,142.08518650494358L43.92613453792704,142.59000563105903M43.926134537927034,-47.16599510869133L43.92613453792704,142.59000563105903" style="fill:none;stroke:rgb(0,0,0);stroke-width:1;stroke-linecap:round"></path><path d="M22.467861115722183,142.43861466350762h34.2478626470486v17.123931323524328h-34.2478626470486z" style="fill:rgb(255,255,255)"></path><path d="M299.27382181773703,-68.60830565212669L299.27382181773703,174.52800942104136" style="fill:none;stroke:rgb(0,0,0);stroke-width:1;stroke-linecap:round"></path><path d="M-46.17128212378893,26.75461407668812h34.2478626470486v17.1239313235243h-34.2478626470486z" style="fill:rgb(255,255,255)"></path><path d="M222.83530479223236,35.90899730361116L258.3390512765295,41.6302807329197M393.2347539443122,180.20322820245082L371.5206464361993,176.70408865323907M371.5206464361993,-66.432226419929L371.5206464361993,176.70408865323907M371.5206464361993,176.70408865323907L361.9274920244769,184.62439193373552" style="fill:none;stroke:rgb(0,0,0);stroke-width:1;stroke-linecap:round"></path><path d="M308.8669762294594,166.6077061405449L287.1528687213465,163.1085665913332L287.1528687213465,-80.02774848183486zM172.03929166445982,-22.824971070839467L248.78452695823844,-86.18739731481104L245.65184344491806,-86.69221644092649z" style="fill:rgb(238,238,238); fill-opacity: 0.4"></path><path d="M119.66991542479708,-84.49789567235692h34.24786264704849v17.123931323524275h-34.24786264704849z" style="fill:rgb(255,255,255)"></path><path d="M-17.063644015766165,-50.67570105399202L-17.063644015766165,116.97700826818536L-13.930960502445831,-50.17088192787655zM109.38562139805319,-32.92135359314867L109.38562139805319,143.905050734012L186.13085669183175,-96.28377983712025zM40.79345102460669,-47.67081423480678L43.926134537927034,-47.16599510869133L123.1503195058242,-115.66631890490115zM245.65184344491806,90.1341878862342L168.9066081511395,153.49661413020576L168.9066081511395,-23.32979019695493z" style="fill:rgb(238,238,238); fill-opacity: 0.4"></path><path d="M393.2347539443122,-62.933086870717254L393.2347539443122,180.20322820245082M393.2347539443122,180.20322820245082L383.6415995325899,188.12353148294724" style="fill:none;stroke:rgb(0,0,0);stroke-width:1;stroke-linecap:round"></path><path d="M361.9274920244769,184.62439193373552L371.5206464361993,176.70408865323907L393.2347539443122,180.2032282024508zM287.1528687213465,163.1085665913332L277.55971430962416,171.0288698718296L277.55971430962416,-72.10744520133841z" style="fill:rgb(238,238,238); fill-opacity: 0.4"></path><path d="M106.25293788473283,-33.42617271926413L106.25293788473283,143.40023160789653M106.25293788473283,143.40023160789653L109.38562139805319,143.905050734012" style="fill:none;stroke:rgb(0,0,0);stroke-width:1;stroke-linecap:round"></path><path d="M299.27382181773703,174.52800942104133L308.8669762294594,166.6077061405449L308.8669762294594,-76.52860893262313z" style="fill:rgb(238,238,238); fill-opacity: 0.4"></path><path d="M109.38562139805319,-32.92135359314867L109.38562139805319,143.905050734012" style="fill:none;stroke:rgb(0,0,0);stroke-width:1;stroke-linecap:round"></path><path d="M346.9071422434362,185.33185339938862h34.24786264704849v17.12393132352422h-34.24786264704849z" style="fill:rgb(255,255,255)"></path><path d="M40.793451024606696,142.08518650494358L43.92613453792704,142.59000563105903L43.926134537927034,-47.16599510869133z" style="fill:rgb(238,238,238); fill-opacity: 0.4"></path><path d="M87.92734917166155,143.7536560239353h34.247862647048706v17.123931323524328h-34.247862647048706z" style="fill:rgb(255,255,255)"></path><path d="M255.04839653774212,46.81062059344409L258.33905127652946,49.60236123042066L279.2236080319984,44.995741573689436zM260.37278767089083,33.501637957936964L256.30531488216815,36.85982617103239L279.2236080319984,44.995741573689436z" style="fill:rgb(0,0,0)"></path><path d="M383.64159953258985,188.12353148294724L361.9274920244769,184.62439193373552L393.2347539443122,180.2032282024508z" style="fill:rgb(238,238,238); fill-opacity: 0.4"></path><path d="M361.9274920244769,-58.51192313943255L361.9274920244769,184.62439193373552M361.9274920244769,184.62439193373552L383.6415995325899,188.12353148294724" style="fill:none;stroke:rgb(0,0,0);stroke-width:1;stroke-linecap:round"></path><path d="M256.30531488216815,36.85982617103239L255.04839653774212,46.81062059344409L279.2236080319984,44.995741573689436z" style="fill:rgb(0,0,0)"></path><path d="M277.55971430962416,171.0288698718296L299.27382181773703,174.52800942104133L299.27382181773703,-68.60830565212669z" style="fill:rgb(238,238,238); fill-opacity: 0.4"></path><path d="M-17.063644015766165,-50.67570105399202L-13.930960502445831,-50.170881927876565" style="fill:none;stroke:rgb(0,0,0);stroke-width:1;stroke-linecap:round"></path><path d="M182.32358569120368,-74.40151315004775h34.24786264704849v17.123931323524275h-34.24786264704849z" style="fill:rgb(255,255,255)"></path><path d="M106.25293788473283,-33.42617271926414L109.38562139805319,-32.92135359314867L182.99817317851142,-96.7885989632357z" style="fill:rgb(238,238,238); fill-opacity: 0.4"></path><path d="M383.64159953258985,-55.012783590220806L383.6415995325899,188.12353148294724" style="fill:none;stroke:rgb(0,0,0);stroke-width:1;stroke-linecap:round"></path><path d="M172.03929166445982,-22.824971070839467L172.03929166445982,154.0014332563212L248.78452695823844,-86.18739731481104z" style="fill:rgb(238,238,238); fill-opacity: 0.4"></path><path d="M11.685810949936798,40.8111482283637h34.2478626470486v17.1239313235243h-34.2478626470486z" style="fill:rgb(255,255,255)"></path><path d="M307.2030825070852,49.50451936551705L342.70682899138234,55.22580279482559" style="fill:none;stroke:rgb(0,0,0);stroke-width:1;stroke-linecap:round"></path><path d="M393.2347539443122,180.2032282024508L371.5206464361993,176.70408865323907L371.5206464361993,-66.43222641992898zM308.8669762294594,-76.52860893262313L308.8669762294594,166.6077061405449L287.1528687213465,-80.02774848183486zM287.1528687213465,-80.02774848183486L287.1528687213465,163.1085665913332L277.55971430962416,-72.10744520133841zM106.25293788473283,143.40023160789656L109.38562139805319,143.905050734012L109.38562139805319,-32.92135359314867z" style="fill:rgb(238,238,238); fill-opacity: 0.4"></path><path d="M122.65268213317265,0.20366326251598016L119.5199986198523,-0.3011558635994801M119.5199986198523,-9.867652460600628L119.5199986198523,-0.3011558635994801M119.5199986198523,-0.3011558635994801L115.36799974237914,3.1268188065136546M121.08634424693216,-9.61524357625975L121.08634424693216,-0.04874697925861094M121.08634424693216,-0.04874697925861094L116.93434536945901,3.379227690854525M121.08634424693216,-0.04874697925861094L181.66400312436303,6.978372653874459M122.65268213317265,-9.362833334485167L122.65268213317265,0.20366326251598016M122.65268213317265,0.20366326251598016L118.50068325569949,3.631637932629115" style="fill:none;stroke:rgb(0,0,0);stroke-width:1;stroke-linecap:round"></path><path d="M122.65268213317265,0.2036632625159777L119.5199986198523,-0.3011558635994826L119.5199986198523,-9.867652460600624z" style="fill:rgb(153,221,255); fill-opacity: 0.4"></path><path d="M168.90660815113944,-23.329790196954924L168.90660815113944,153.49661413020576M168.90660815113944,153.49661413020576L172.0392916644598,154.00143325632123" style="fill:none;stroke:rgb(0,0,0);stroke-width:1;stroke-linecap:round"></path><path d="M103.2704092400759,-8.039382850618379h34.247862647048706v17.123931323524296h-34.247862647048706z" style="fill:rgb(255,255,255)"></path><path d="M477.60253165916504,182.36895501884905L455.88842415105216,178.86981546963733M455.88842415105216,-41.40690911251547L455.88842415105216,178.86981546963733M455.88842415105216,178.86981546963733L446.2952697393299,186.79011875013376M172.0392916644598,-22.824971070839467L172.0392916644598,154.00143325632123" style="fill:none;stroke:rgb(0,0,0);stroke-width:1;stroke-linecap:round"></path><path d="M115.36799974237914,3.1268188065136533L119.5199986198523,-0.3011558635994826L122.65268213317265,0.2036632625159777zM122.65268213317265,-9.362833334485163L122.65268213317265,0.2036632625159777L119.5199986198523,-9.867652460600624z" style="fill:rgb(153,221,255); fill-opacity: 0.4"></path><path d="M40.79345102460669,-47.67081423480678L40.793451024606696,142.08518650494358L43.926134537927034,-47.16599510869133z" style="fill:rgb(238,238,238); fill-opacity: 0.4"></path><path d="M122.65268213317265,-9.362833334485167L119.5199986198523,-9.867652460600628M119.5199986198523,-9.867652460600628L115.36799974237914,-6.439677790487494M121.08634424693216,-9.61524357625975L116.93434536945901,-6.187268906146619M121.08634424693216,-9.61524357625975L181.66400312436303,6.978372653874459" style="fill:none;stroke:rgb(0,0,0);stroke-width:1;stroke-linecap:round"></path><path d="M121.08634037651245,-9.615242897542894L121.08634037651245,-0.04874630054175378L116.9343414990393,3.3792283695713823z" style="fill:rgb(255,187,187); fill-opacity: 0.4"></path><path d="M122.65268213317265,-9.362833334485167L118.50068325569949,-5.934858664372033" style="fill:none;stroke:rgb(0,0,0);stroke-width:1;stroke-linecap:round"></path><path d="M119.5199986198523,-9.867652460600624L119.5199986198523,-0.3011558635994826L115.36799974237914,-6.43967779048749zM118.50068325569949,3.631637932629114L122.65268213317265,0.2036632625159777L122.65268213317265,-9.362833334485163z" style="fill:rgb(153,221,255); fill-opacity: 0.4"></path><path d="M150.58101943806815,153.85003854624452h34.247862647048706v17.123931323524328h-34.247862647048706z" style="fill:rgb(255,255,255)"></path><path d="M118.50068325569949,3.631637932629114L115.36799974237914,3.1268188065136533L122.65268213317265,0.2036632625159777zM119.5199986198523,-0.3011558635994826L115.36799974237914,3.1268188065136533L115.36799974237914,-6.43967779048749zM118.50068325569949,-5.9348586643720305L122.65268213317265,-9.362833334485163L119.5199986198523,-9.867652460600624z" style="fill:rgb(153,221,255); fill-opacity: 0.4"></path><path d="M371.5206464361993,176.70408865323907L361.9274920244769,184.62439193373552L361.9274920244769,-58.51192313943253z" style="fill:rgb(238,238,238); fill-opacity: 0.4"></path><path d="M115.36799974237914,-6.439677790487494L115.36799974237914,3.1268188065136546M115.36799974237914,3.1268188065136546L118.50068325569949,3.631637932629115" style="fill:none;stroke:rgb(0,0,0);stroke-width:1;stroke-linecap:round"></path><path d="M121.08634037651245,-9.615242897542894L116.9343414990393,3.3792283695713823L116.9343414990393,-6.187268227429762z" style="fill:rgb(255,187,187); fill-opacity: 0.4"></path><path d="M116.93434536945901,3.379227690854525L116.93434536945901,-6.187268906146619M116.93434536945901,3.379227690854525L181.66400312436303,6.978372653874459" style="fill:none;stroke:rgb(0,0,0);stroke-width:1;stroke-linecap:round"></path><path d="M118.50068325569949,-5.9348586643720305L118.50068325569949,3.631637932629114L122.65268213317265,-9.362833334485163zM115.36799974237914,-6.43967779048749L118.50068325569949,-5.9348586643720305L119.5199986198523,-9.867652460600624z" style="fill:rgb(153,221,255); fill-opacity: 0.4"></path><path d="M118.50068325569949,-5.934858664372033L118.50068325569949,3.631637932629115" style="fill:none;stroke:rgb(0,0,0);stroke-width:1;stroke-linecap:round"></path><path d="M383.64159953258985,188.12353148294724L393.2347539443122,180.2032282024508L393.2347539443122,-62.933086870717254z" style="fill:rgb(238,238,238); fill-opacity: 0.4"></path><path d="M115.36799974237914,3.1268188065136533L118.50068325569949,3.631637932629114L118.50068325569949,-5.9348586643720305z" style="fill:rgb(153,221,255); fill-opacity: 0.4"></path><path d="M477.60253165916504,-37.90776956330373L477.60253165916504,182.36895501884905M477.60253165916504,182.36895501884905L468.0093772474428,190.2892582993455" style="fill:none;stroke:rgb(0,0,0);stroke-width:1;stroke-linecap:round"></path><path d="M115.36799974237914,-6.43967779048749L115.36799974237914,3.1268188065136533L118.50068325569949,-5.9348586643720305z" style="fill:rgb(153,221,255); fill-opacity: 0.4"></path><path d="M446.2952697393299,186.79011875013376L455.88842415105216,178.86981546963733L477.60253165916515,182.36895501884905z" style="fill:rgb(238,238,238); fill-opacity: 0.4"></path><path d="M115.36799974237914,-6.439677790487494L118.50068325569949,-5.934858664372033" style="fill:none;stroke:rgb(0,0,0);stroke-width:1;stroke-linecap:round"></path><path d="M121.08634037651245,-0.04874630054175378L121.08634037651245,-9.615242897542894L181.66401120418254,6.978375258323453z" style="fill:rgb(255,187,187); fill-opacity: 0.4"></path><path d="M116.93434536945901,-6.187268906146619L181.66400312436303,6.978372653874459" style="fill:none;stroke:rgb(0,0,0);stroke-width:1;stroke-linecap:round"></path><path d="M116.9343414990393,3.3792283695713823L121.08634037651245,-0.04874630054175378L181.66401120418254,6.978375258323453z" style="fill:rgb(255,187,187); fill-opacity: 0.4"></path><path d="M299.27382181773703,-68.60830565212669L299.27382181773703,174.52800942104133L308.8669762294594,-76.52860893262313z" style="fill:rgb(238,238,238); fill-opacity: 0.4"></path><path d="M339.41617425259494,60.40614265534998L342.7068289913823,63.19788329232655L363.5913857468512,58.591263635595325z" style="fill:rgb(0,0,0)"></path><path d="M99.81041017551506,-19.53248218769248h34.24786264704849v17.123931323524296h-34.24786264704849z" style="fill:rgb(255,255,255)"></path><path d="M277.55971430962416,-72.10744520133841L277.55971430962416,171.0288698718296L299.27382181773703,-68.60830565212669z" style="fill:rgb(238,238,238); fill-opacity: 0.4"></path><path d="M344.7405653857436,47.09716001984284L340.67309259702097,50.455348232938285L363.5913857468512,58.591263635595325z" style="fill:rgb(0,0,0)"></path><path d="M77.1452990058762,48.590990550323816h34.2478626470486v17.123931323524275h-34.2478626470486z" style="fill:rgb(255,255,255)"></path><path d="M121.08634037651245,-9.615242897542894L116.9343414990393,-6.187268227429762L181.66401120418254,6.978375258323453z" style="fill:rgb(255,187,187); fill-opacity: 0.4"></path><path d="M168.9066081511395,-23.32979019695493L172.03929166445982,-22.824971070839467L245.65184344491806,-86.69221644092649z" style="fill:rgb(238,238,238); fill-opacity: 0.4"></path><path d="M431.2749199582889,187.49758510258636h34.24786264704892v17.12393132352422h-34.24786264704892z" style="fill:rgb(255,255,255)"></path><path d="M340.67309259702097,50.455348232938285L339.41617425259494,60.40614265534998L363.5913857468512,58.591263635595325z" style="fill:rgb(0,0,0)"></path><path d="M116.9343414990393,-6.187268227429762L116.9343414990393,3.3792283695713823L181.66401120418254,6.978375258323453z" style="fill:rgb(255,187,187); fill-opacity: 0.4"></path><path d="M361.9274920244769,184.62439193373552L383.64159953258985,188.12353148294724L383.64159953258985,-55.012783590220806zM468.00937724744284,190.28925829934548L446.2952697393299,186.79011875013376L477.60253165916515,182.36895501884905zM106.25293788473283,-33.42617271926414L106.25293788473283,143.40023160789656L109.38562139805319,-32.92135359314867z" style="fill:rgb(238,238,238); fill-opacity: 0.4"></path><path d="M446.2952697393299,-33.48660583201902L446.2952697393299,186.79011875013376M446.2952697393299,186.79011875013376L468.0093772474428,190.2892582993455M308.8669762294594,-76.52860893262313L287.15286872134647,-80.02774848183488M287.15286872134647,-80.02774848183488L277.55971430962416,-72.10744520133842" style="fill:none;stroke:rgb(0,0,0);stroke-width:1;stroke-linecap:round"></path><path d="M168.9066081511395,153.49661413020576L172.03929166445982,154.0014332563212L172.03929166445982,-22.824971070839467z" style="fill:rgb(238,238,238); fill-opacity: 0.4"></path><path d="M40.793451024606696,-47.67081423480679L43.926134537927034,-47.16599510869133M391.5708602219381,63.10004142742294L427.0746067062352,68.82132485673148M468.0093772474428,-29.987466282807286L468.0093772474428,190.2892582993455" style="fill:none;stroke:rgb(0,0,0);stroke-width:1;stroke-linecap:round"></path><path d="M393.2347539443122,-62.933086870717254L393.2347539443122,180.2032282024508L371.5206464361993,-66.43222641992898z" style="fill:rgb(238,238,238); fill-opacity: 0.4"></path><path d="M308.8669762294594,-76.52860893262313L299.27382181773703,-68.60830565212669" style="fill:none;stroke:rgb(0,0,0);stroke-width:1;stroke-linecap:round"></path><path d="M371.5206464361993,-66.43222641992898L371.5206464361993,176.70408865323907L361.9274920244769,-58.51192313943253zM477.60253165916515,182.36895501884905L455.88842415105216,178.86981546963733L455.88842415105216,-41.406909112515464zM299.27382181773703,-68.60830565212669L308.8669762294594,-76.52860893262313L287.1528687213465,-80.02774848183486zM277.55971430962416,-72.10744520133841L299.27382181773703,-68.60830565212669L287.1528687213465,-80.02774848183486z" style="fill:rgb(238,238,238); fill-opacity: 0.4"></path><path d="M139.7989692722828,58.687373072633015h34.247862647048706v17.123931323524275h-34.247862647048706z" style="fill:rgb(255,255,255)"></path><path d="M277.55971430962416,-72.10744520133842L299.27382181773703,-68.60830565212669" style="fill:none;stroke:rgb(0,0,0);stroke-width:1;stroke-linecap:round"></path><path d="M455.88842415105216,178.86981546963733L446.2952697393299,186.79011875013376L446.2952697393299,-33.48660583201902z" style="fill:rgb(238,238,238); fill-opacity: 0.4"></path><path d="M106.25293788473283,-33.42617271926413L109.38562139805319,-32.92135359314867" style="fill:none;stroke:rgb(0,0,0);stroke-width:1;stroke-linecap:round"></path><path d="M468.00937724744284,190.28925829934548L477.60253165916515,182.36895501884905L477.60253165916515,-37.90776956330373zM168.9066081511395,-23.32979019695493L168.9066081511395,153.49661413020576L172.03929166445982,-22.824971070839467zM383.64159953258985,-55.012783590220806L383.64159953258985,188.12353148294724L393.2347539443122,-62.933086870717254z" style="fill:rgb(238,238,238); fill-opacity: 0.4"></path><path d="M423.7839519674479,74.00166471725586L427.0746067062352,76.79340535423243L447.95916346170407,72.18678569750121z" style="fill:rgb(0,0,0)"></path><path d="M361.9274920244769,-58.51192313943253L361.9274920244769,184.62439193373552L383.64159953258985,-55.012783590220806z" style="fill:rgb(238,238,238); fill-opacity: 0.4"></path><path d="M429.1083431005966,60.692682081748735L425.04087031187385,64.05087029484417L447.95916346170407,72.18678569750121zM425.04087031187385,64.05087029484417L423.7839519674479,74.00166471725586L447.95916346170407,72.18678569750121z" style="fill:rgb(0,0,0)"></path><path d="M446.2952697393299,186.79011875013376L468.00937724744284,190.28925829934548L468.00937724744284,-29.98746628280729z" style="fill:rgb(238,238,238); fill-opacity: 0.4"></path><path d="M393.2347539443122,-62.933086870717254L371.5206464361993,-66.432226419929M371.5206464361993,-66.432226419929L361.9274920244769,-58.51192313943255M561.9703093740179,127.90367005565186L540.256201865905,124.40453050644012M540.256201865905,40.249419974493485L540.256201865905,124.40453050644012M540.256201865905,124.40453050644012L530.6630474541828,132.32483378693658M475.9386379367909,76.69556348932879L511.442384421088,82.41684691863733" style="fill:none;stroke:rgb(0,0,0);stroke-width:1;stroke-linecap:round"></path><path d="M477.60253165916515,-37.90776956330373L477.60253165916515,182.36895501884905L455.88842415105216,-41.406909112515464zM455.88842415105216,-41.406909112515464L455.88842415105216,178.86981546963733L446.2952697393299,-33.48660583201902z" style="fill:rgb(238,238,238); fill-opacity: 0.4"></path><path d="M393.2347539443122,-62.933086870717254L383.64159953258985,-55.012783590220806M168.90660815113944,-23.329790196954924L172.0392916644598,-22.824971070839467" style="fill:none;stroke:rgb(0,0,0);stroke-width:1;stroke-linecap:round"></path><path d="M383.64159953258985,-55.012783590220806L393.2347539443122,-62.933086870717254L371.5206464361993,-66.43222641992898z" style="fill:rgb(238,238,238); fill-opacity: 0.4"></path><path d="M561.9703093740179,43.74855952370522L561.9703093740179,127.90367005565186M561.9703093740179,127.90367005565186L552.3771549622957,135.8239733361483" style="fill:none;stroke:rgb(0,0,0);stroke-width:1;stroke-linecap:round"></path><path d="M530.6630474541828,132.32483378693655L540.256201865905,124.4045305064401L561.9703093740179,127.90367005565184zM361.9274920244769,-58.51192313943253L383.64159953258985,-55.012783590220806L371.5206464361993,-66.43222641992898zM561.9703093740179,127.90367005565184L540.256201865905,124.4045305064401L540.256201865905,40.24941997449348z" style="fill:rgb(238,238,238); fill-opacity: 0.4"></path><path d="M361.9274920244769,-58.51192313943255L383.64159953258985,-55.012783590220806" style="fill:none;stroke:rgb(0,0,0);stroke-width:1;stroke-linecap:round"></path><path d="M515.6426976731418,133.03229982075212h34.24786264704892v17.123931323524328h-34.24786264704892z" style="fill:rgb(255,255,255)"></path><path d="M468.00937724744284,-29.98746628280729L468.00937724744284,190.28925829934548L477.60253165916515,-37.90776956330373zM446.2952697393299,-33.48660583201902L446.2952697393299,186.79011875013376L468.00937724744284,-29.98746628280729zM552.3771549622957,135.8239733361483L530.6630474541828,132.32483378693655L561.9703093740179,127.90367005565184z" style="fill:rgb(238,238,238); fill-opacity: 0.4"></path><path d="M530.6630474541828,48.16972325498993L530.6630474541828,132.32483378693658M530.6630474541828,132.32483378693658L552.3771549622957,135.8239733361483" style="fill:none;stroke:rgb(0,0,0);stroke-width:1;stroke-linecap:round"></path><path d="M508.15172968230064,87.59718677916175L511.442384421088,90.38892741613832L532.3269411765569,85.78230775940708zM513.4761208154493,74.2882041436546L509.4086480267266,77.64639235675004L532.3269411765569,85.78230775940708zM509.4086480267266,77.64639235675004L508.15172968230064,87.59718677916175L532.3269411765569,85.78230775940708z" style="fill:rgb(0,0,0)"></path><path d="M540.256201865905,124.4045305064401L530.6630474541828,132.32483378693655L530.6630474541828,48.16972325498993z" style="fill:rgb(238,238,238); fill-opacity: 0.4"></path><path d="M477.60253165916504,-37.90776956330373L455.88842415105216,-41.40690911251547M455.88842415105216,-41.40690911251547L446.2952697393299,-33.48660583201902" style="fill:none;stroke:rgb(0,0,0);stroke-width:1;stroke-linecap:round"></path><path d="M552.3771549622957,135.8239733361483L561.9703093740179,127.90367005565184L561.9703093740179,43.748559523705204zM561.9703093740179,43.748559523705204L561.9703093740179,127.90367005565184L540.256201865905,40.24941997449348zM540.256201865905,40.24941997449348L540.256201865905,124.4045305064401L530.6630474541828,48.16972325498993z" style="fill:rgb(238,238,238); fill-opacity: 0.4"></path><path d="M552.3771549622957,51.668862804201666L552.3771549622957,135.8239733361483M561.9703093740179,43.74855952370522L540.256201865905,40.249419974493485M540.256201865905,40.249419974493485L530.6630474541828,48.16972325498993M477.60253165916504,-37.90776956330373L468.0093772474428,-29.987466282807286" style="fill:none;stroke:rgb(0,0,0);stroke-width:1;stroke-linecap:round"></path><path d="M530.6630474541828,132.32483378693655L552.3771549622957,135.8239733361483L552.3771549622957,51.66886280420165zM468.00937724744284,-29.98746628280729L477.60253165916515,-37.90776956330373L455.88842415105216,-41.406909112515464zM446.2952697393299,-33.48660583201902L468.00937724744284,-29.98746628280729L455.88842415105216,-41.406909112515464z" style="fill:rgb(238,238,238); fill-opacity: 0.4"></path><path d="M561.9703093740179,43.74855952370522L552.3771549622957,51.668862804201666" style="fill:none;stroke:rgb(0,0,0);stroke-width:1;stroke-linecap:round"></path><path d="M552.3771549622957,51.66886280420165L552.3771549622957,135.8239733361483L561.9703093740179,43.748559523705204z" style="fill:rgb(238,238,238); fill-opacity: 0.4"></path><path d="M446.2952697393299,-33.48660583201902L468.0093772474428,-29.987466282807286" style="fill:none;stroke:rgb(0,0,0);stroke-width:1;stroke-linecap:round"></path><path d="M530.6630474541828,48.16972325498993L530.6630474541828,132.32483378693655L552.3771549622957,51.66886280420165zM552.3771549622957,51.66886280420165L561.9703093740179,43.748559523705204L540.256201865905,40.24941997449348zM530.6630474541828,48.16972325498993L552.3771549622957,51.66886280420165L540.256201865905,40.24941997449348z" style="fill:rgb(238,238,238); fill-opacity: 0.4"></path><path d="M530.6630474541828,48.16972325498993L552.3771549622957,51.668862804201666" style="fill:none;stroke:rgb(0,0,0);stroke-width:1;stroke-linecap:round"></path></svg>