<svg viewBox="-768 -353 1536 706" width="1536" height="706" style="background-color: rgb(255, 255, 255);" xmlns="http://www.w3.org/2000/svg"><path d="M-102.59905986367525,50.36556278584082L-106.1640090689676,49.764427345999955M-106.16400906896759,-133.07810471910858L-106.1640090689676,49.764427345999955M-106.1640090689676,49.764427345999955L-135.06422048914817,92.40127328987722M57.23132338937336,43.30748185563768L53.66637418408101,42.70634641579683M53.66637418408103,-128.7755865519401L53.66637418408101,42.70634641579683M53.66637418408101,42.70634641579683L-9.698667318809228,136.18959030997726M-102.59905986367525,-132.47696927926773L-102.59905986367525,50.36556278584082M-102.59905986367525,50.36556278584082L-131.49927128385582,93.00240872971807M57.23132338937337,-128.17445111209926L57.23132338937336,43.30748185563768M57.23132338937336,43.30748185563768L-6.13371811351688,136.7907257498181M132.70732313572955,60.47185451745216L129.1423739304372,59.870719077611305M129.14237393043723,-134.21934919887738L129.1423739304372,59.870719077611305M129.1423739304372,59.870719077611305L57.42330114652836,165.6787705505488M132.70732313572955,-133.61821375903654L132.70732313572955,60.47185451745216M132.70732313572955,60.47185451745216L60.98825035182071,166.27990599038964M-20.688078429669005,23.13542303077637L-24.253027634961356,22.534287590935516M-24.25302763496134,-113.11457403064531L-24.253027634961356,22.534287590935516M-24.253027634961356,22.534287590935516L-74.37723371146063,96.48316019504821M-20.688078429668998,-112.51343859080447L-20.688078429669005,23.13542303077637M-20.688078429669005,23.13542303077637L-70.81228450616828,97.08429563488906M-101.87790551555705,29.811197724972338L-105.44285472084941,29.210062285131485M-105.44285472084941,-6.668261588410035L-105.44285472084941,29.210062285131485M-105.44285472084941,29.210062285131485L-118.70041160719978,48.76910295570587M-103.66037501943181,-6.367692841776236L-103.66037501943181,29.510627921198374M-103.66037501943181,29.510627921198374L-116.91793248048182,49.069669439634346M-103.66037501943181,29.510627921198374L-32.71666901696119,10.18247490177291M-101.87790551555705,-6.067126148569181L-101.87790551555705,29.811197724972338M-101.87790551555705,29.811197724972338L-115.13546240190743,49.37023839554673" style="fill:none;stroke:rgb(0,0,0);stroke-width:1;stroke-linecap:round"></path><path d="M-101.87790551555705,29.811197724972327L-105.44285472084941,29.210062285131475L-105.44285472084941,-6.668261588410043zM-118.70041160719978,48.76910295570587L-105.44285472084941,29.210062285131475L-101.87790551555705,29.811197724972327zM-101.87790551555703,-6.067126148569187L-101.87790551555705,29.811197724972327L-105.44285472084941,-6.668261588410043z" style="fill:rgb(153,221,255); fill-opacity: 0.4"></path><path d="M-135.06422048914817,92.40127328987722L-106.16400906896759,49.764427345999955L-102.59905986367525,50.36556278584081z" style="fill:rgb(238,238,238); fill-opacity: 0.4"></path><path d="M-103.66038011820322,-6.367693868489614L-103.66038011820325,29.510630005051905L-116.91793700455362,49.069670675626305z" style="fill:rgb(255,187,187); fill-opacity: 0.4"></path><path d="M-115.13546240190743,49.37023839554673L-101.87790551555705,29.811197724972327L-101.87790551555703,-6.067126148569187z" style="fill:rgb(153,221,255); fill-opacity: 0.4"></path><path d="M-101.87790551555705,-6.067126148569181L-105.44285472084941,-6.668261588410035M-105.44285472084941,-6.668261588410035L-118.70041160719978,12.890779082164354" style="fill:none;stroke:rgb(0,0,0);stroke-width:1;stroke-linecap:round"></path><path d="M-103.66038011820325,29.510630005051905L-103.66038011820322,-6.367693868489614L-32.716670284324735,10.182476149842808z" style="fill:rgb(255,187,187); fill-opacity: 0.4"></path><path d="M-103.66037501943181,-6.367692841776236L-116.91793248048182,13.191348676659736M-103.66037501943181,-6.367692841776236L-32.71666901696119,10.18247490177291M-101.87790551555705,-6.067126148569181L-115.13546240190743,13.49191452200521" style="fill:none;stroke:rgb(0,0,0);stroke-width:1;stroke-linecap:round"></path><path d="M-115.13546240190743,49.37023839554673L-118.70041160719978,48.76910295570587L-101.87790551555705,29.811197724972327z" style="fill:rgb(153,221,255); fill-opacity: 0.4"></path><path d="M-20.688078429669012,23.13542303077637L-24.25302763496136,22.534287590935516L-24.25302763496135,-113.11457403064531zM57.231323389373344,43.30748185563768L53.66637418408101,42.70634641579683L53.66637418408103,-128.7755865519401z" style="fill:rgb(238,238,238); fill-opacity: 0.4"></path><path d="M-105.44285472084941,-6.668261588410043L-105.44285472084941,29.210062285131475L-118.70041160719978,12.890779082164352z" style="fill:rgb(153,221,255); fill-opacity: 0.4"></path><path d="M-116.91793700455362,49.069670675626305L-103.66038011820325,29.510630005051905L-32.716670284324735,10.182476149842808z" style="fill:rgb(255,187,187); fill-opacity: 0.4"></path><path d="M-102.59905986367525,50.36556278584081L-106.16400906896759,49.764427345999955L-106.16400906896759,-133.07810471910858z" style="fill:rgb(238,238,238); fill-opacity: 0.4"></path><path d="M201.56290976648717,69.48688281059744L197.99796056119482,68.88574737075658M197.99796056119482,-111.97940975286292L197.99796056119482,68.88574737075658M197.99796056119482,68.88574737075658L131.1656827274645,167.48424869816859M201.5629097664872,-111.37827431302208L201.56290976648717,69.48688281059744M201.56290976648717,69.48688281059744L134.73063193275684,168.08538413800943" style="fill:none;stroke:rgb(0,0,0);stroke-width:1;stroke-linecap:round"></path><path d="M-105.44285472084941,29.210062285131475L-118.70041160719978,48.76910295570587L-118.70041160719978,12.890779082164352zM-115.13546240190743,13.491914522005207L-101.87790551555703,-6.067126148569187L-105.44285472084941,-6.668261588410043z" style="fill:rgb(153,221,255); fill-opacity: 0.4"></path><path d="M132.70732313572955,60.47185451745216L129.1423739304372,59.870719077611305L129.1423739304372,-134.21934919887738z" style="fill:rgb(238,238,238); fill-opacity: 0.4"></path><path d="M-118.70041160719978,12.890779082164354L-118.70041160719978,48.76910295570587M-118.70041160719978,48.76910295570587L-115.13546240190743,49.37023839554673M-116.91793248048182,49.069669439634346L-116.91793248048182,13.191348676659736M-116.91793248048182,49.069669439634346L-32.71666901696119,10.18247490177291M-115.13546240190743,13.49191452200521L-115.13546240190743,49.37023839554673" style="fill:none;stroke:rgb(0,0,0);stroke-width:1;stroke-linecap:round"></path><path d="M-103.66038011820322,-6.367693868489614L-116.91793700455362,49.069670675626305L-116.91793700455362,13.19134680208478z" style="fill:rgb(255,187,187); fill-opacity: 0.4"></path><path d="M-115.13546240190743,13.491914522005207L-115.13546240190743,49.37023839554673L-101.87790551555703,-6.067126148569187z" style="fill:rgb(153,221,255); fill-opacity: 0.4"></path><path d="M-103.66038011820322,-6.367693868489614L-116.91793700455362,13.19134680208478L-32.716670284324735,10.182476149842808z" style="fill:rgb(255,187,187); fill-opacity: 0.4"></path><path d="M-116.91793248048182,13.191348676659736L-32.71666901696119,10.18247490177291" style="fill:none;stroke:rgb(0,0,0);stroke-width:1;stroke-linecap:round"></path><path d="M-131.49927128385582,93.00240872971808L-135.06422048914817,92.40127328987722L-102.59905986367525,50.36556278584081zM-74.37723371146063,96.48316019504821L-24.25302763496136,22.534287590935516L-20.688078429669012,23.13542303077637z" style="fill:rgb(238,238,238); fill-opacity: 0.4"></path><path d="M-118.70041160719978,48.76910295570587L-115.13546240190743,49.37023839554673L-115.13546240190743,13.491914522005207z" style="fill:rgb(153,221,255); fill-opacity: 0.4"></path><path d="M-116.91793700455362,13.19134680208478L-116.91793700455362,49.069670675626305L-32.716670284324735,10.182476149842808z" style="fill:rgb(255,187,187); fill-opacity: 0.4"></path><path d="M-118.70041160719978,12.890779082164352L-115.13546240190743,13.491914522005207L-105.44285472084941,-6.668261588410043z" style="fill:rgb(153,221,255); fill-opacity: 0.4"></path><path d="M-9.698667318809227,136.18959030997726L53.66637418408101,42.70634641579683L57.231323389373344,43.30748185563768z" style="fill:rgb(238,238,238); fill-opacity: 0.4"></path><path d="M272.861893872334,81.50959160741455L269.29694466704166,80.9084561675737M269.29694466704166,-99.9567009560458L269.29694466704166,80.9084561675737M269.29694466704166,80.9084561675737L202.46466683331136,179.5069574949857M272.86189387233406,-99.35556551620495L272.861893872334,81.50959160741455M272.861893872334,81.50959160741455L206.0296160386037,180.10809293482654" style="fill:none;stroke:rgb(0,0,0);stroke-width:1;stroke-linecap:round"></path><path d="M-118.70041160719978,12.890779082164352L-118.70041160719978,48.76910295570587L-115.13546240190743,13.491914522005207z" style="fill:rgb(153,221,255); fill-opacity: 0.4"></path><path d="M-20.688078429669,-112.51343859080445L-20.688078429669012,23.13542303077637L-24.25302763496135,-113.11457403064531zM-131.49927128385582,93.00240872971808L-102.59905986367525,50.36556278584081L-102.59905986367522,-132.47696927926773z" style="fill:rgb(238,238,238); fill-opacity: 0.4"></path><path d="M-118.70041160719978,12.890779082164354L-115.13546240190743,13.49191452200521" style="fill:none;stroke:rgb(0,0,0);stroke-width:1;stroke-linecap:round"></path><path d="M57.42330114652836,165.6787705505488L129.1423739304372,59.870719077611305L132.70732313572955,60.47185451745216zM57.231323389373365,-128.17445111209923L57.231323389373344,43.30748185563768L53.66637418408103,-128.7755865519401zM201.56290976648717,69.48688281059744L197.99796056119482,68.88574737075658L197.99796056119487,-111.97940975286292zM-102.59905986367522,-132.47696927926773L-102.59905986367525,50.36556278584081L-106.16400906896759,-133.07810471910858z" style="fill:rgb(238,238,238); fill-opacity: 0.4"></path><path d="M-135.06422048914817,-90.44125877523133L-135.06422048914817,92.40127328987722M-135.06422048914817,92.40127328987722L-131.49927128385582,93.00240872971807M-131.49927128385582,-89.84012333539047L-131.49927128385582,93.00240872971807" style="fill:none;stroke:rgb(0,0,0);stroke-width:1;stroke-linecap:round"></path><path d="M-70.81228450616828,97.08429563488907L-20.688078429669012,23.13542303077637L-20.688078429669,-112.51343859080445zM132.70732313572955,-133.6182137590365L132.70732313572955,60.47185451745216L129.1423739304372,-134.21934919887738z" style="fill:rgb(238,238,238); fill-opacity: 0.4"></path><path d="M121.76801808522697,-12.153689113025672L118.20306887993462,-12.754824552866529M118.20306887993462,-22.539821972923306L118.20306887993462,-12.754824552866529M118.20306887993462,-12.754824552866529L114.5873715472936,-7.420540733618968M119.98554026741516,-22.239253268834034L119.98554026741516,-12.454255945982473M119.98554026741516,-12.454255945982473L116.36984293477414,-7.1199721267349165M119.98554026741516,-12.454255945982473L187.9018515455819,-0.5643929599627208" style="fill:none;stroke:rgb(0,0,0);stroke-width:1;stroke-linecap:round"></path><path d="M-106.16400906896759,49.764427345999955L-135.06422048914817,92.40127328987722L-135.06422048914817,-90.44125877523132z" style="fill:rgb(238,238,238); fill-opacity: 0.4"></path><path d="M121.76801808522697,-21.938686533082446L121.76801808522697,-12.153689113025672M121.76801808522697,-12.153689113025672L118.15232075258596,-6.819405293778112M-20.688078429668998,-112.51343859080447L-24.25302763496134,-113.11457403064531M-24.25302763496134,-113.11457403064531L-74.3772337114606,-39.16570142653262" style="fill:none;stroke:rgb(0,0,0);stroke-width:1;stroke-linecap:round"></path><path d="M121.76801808522697,-12.153689113025672L118.20306887993462,-12.754824552866529L118.20306887993462,-22.539821972923306z" style="fill:rgb(153,221,255); fill-opacity: 0.4"></path><path d="M-20.688078429668998,-112.51343859080447L-70.81228450616828,-38.56456598669177" style="fill:none;stroke:rgb(0,0,0);stroke-width:1;stroke-linecap:round"></path><path d="M114.5873715472936,-7.420540733618973L118.20306887993462,-12.754824552866529L121.76801808522697,-12.153689113025672zM121.76801808522697,-21.938686533082446L121.76801808522697,-12.153689113025672L118.20306887993462,-22.539821972923306z" style="fill:rgb(153,221,255); fill-opacity: 0.4"></path><path d="M-6.133718113516885,136.7907257498181L57.231323389373344,43.30748185563768L57.231323389373365,-128.17445111209923z" style="fill:rgb(238,238,238); fill-opacity: 0.4"></path><path d="M119.98554348258081,-22.239254253002873L119.98554348258081,-12.454256832946099L116.3698461499398,-7.1199730136985435z" style="fill:rgb(255,187,187); fill-opacity: 0.4"></path><path d="M121.76801808522697,-21.938686533082446L118.20306887993462,-22.539821972923306M118.20306887993462,-22.539821972923306L114.5873715472936,-17.205538153675743" style="fill:none;stroke:rgb(0,0,0);stroke-width:1;stroke-linecap:round"></path><path d="M118.15232075258596,-6.819405293778117L121.76801808522697,-12.153689113025672L121.76801808522697,-21.938686533082446z" style="fill:rgb(153,221,255); fill-opacity: 0.4"></path><path d="M119.98554026741516,-22.239253268834034L116.36984293477414,-16.904969449586474M119.98554026741516,-22.239253268834034L187.9018515455819,-0.5643929599627208M121.76801808522697,-21.938686533082446L118.15232075258596,-16.604402713834887" style="fill:none;stroke:rgb(0,0,0);stroke-width:1;stroke-linecap:round"></path><path d="M118.20306887993462,-22.539821972923306L118.20306887993462,-12.754824552866529L114.5873715472936,-17.205538153675747zM118.15232075258596,-6.819405293778117L114.5873715472936,-7.420540733618973L121.76801808522697,-12.153689113025672z" style="fill:rgb(153,221,255); fill-opacity: 0.4"></path><path d="M272.86189387233406,81.50959160741455L269.29694466704166,80.90845616757369L269.2969446670417,-99.95670095604581z" style="fill:rgb(238,238,238); fill-opacity: 0.4"></path><path d="M118.20306887993462,-12.754824552866529L114.5873715472936,-7.420540733618973L114.5873715472936,-17.205538153675747z" style="fill:rgb(153,221,255); fill-opacity: 0.4"></path><path d="M114.5873715472936,-17.205538153675743L114.5873715472936,-7.420540733618968M114.5873715472936,-7.420540733618968L118.15232075258596,-6.819405293778112" style="fill:none;stroke:rgb(0,0,0);stroke-width:1;stroke-linecap:round"></path><path d="M131.1656827274645,167.48424869816859L197.99796056119482,68.88574737075658L201.56290976648717,69.48688281059744z" style="fill:rgb(238,238,238); fill-opacity: 0.4"></path><path d="M118.15232075258596,-16.60440271383489L121.76801808522697,-21.938686533082446L118.20306887993462,-22.539821972923306z" style="fill:rgb(153,221,255); fill-opacity: 0.4"></path><path d="M116.36984293477414,-7.1199721267349165L116.36984293477414,-16.904969449586474M116.36984293477414,-7.1199721267349165L187.9018515455819,-0.5643929599627208" style="fill:none;stroke:rgb(0,0,0);stroke-width:1;stroke-linecap:round"></path><path d="M-70.81228450616828,97.08429563488907L-74.37723371146063,96.48316019504821L-20.688078429669012,23.13542303077637z" style="fill:rgb(238,238,238); fill-opacity: 0.4"></path><path d="M118.15232075258596,-16.604402713834887L118.15232075258596,-6.819405293778112" style="fill:none;stroke:rgb(0,0,0);stroke-width:1;stroke-linecap:round"></path><path d="M119.98554348258081,-22.239254253002873L116.3698461499398,-7.1199730136985435L116.3698461499398,-16.904970433755317z" style="fill:rgb(255,187,187); fill-opacity: 0.4"></path><path d="M118.15232075258596,-16.60440271383489L118.15232075258596,-6.819405293778117L121.76801808522697,-21.938686533082446z" style="fill:rgb(153,221,255); fill-opacity: 0.4"></path><path d="M-106.16400906896759,-133.07810471910858L-106.16400906896759,49.764427345999955L-135.06422048914817,-90.44125877523132z" style="fill:rgb(238,238,238); fill-opacity: 0.4"></path><path d="M114.5873715472936,-7.420540733618973L118.15232075258596,-6.819405293778117L118.15232075258596,-16.60440271383489zM114.5873715472936,-17.205538153675747L118.15232075258596,-16.60440271383489L118.20306887993462,-22.539821972923306z" style="fill:rgb(153,221,255); fill-opacity: 0.4"></path><path d="M119.98554348258081,-12.454256832946099L119.98554348258081,-22.239254253002873L187.90184651414577,-0.5643930478432954z" style="fill:rgb(255,187,187); fill-opacity: 0.4"></path><path d="M114.5873715472936,-17.205538153675747L114.5873715472936,-7.420540733618973L118.15232075258596,-16.60440271383489z" style="fill:rgb(153,221,255); fill-opacity: 0.4"></path><path d="M116.3698461499398,-7.1199730136985435L119.98554348258081,-12.454256832946099L187.90184651414577,-0.5643930478432954z" style="fill:rgb(255,187,187); fill-opacity: 0.4"></path><path d="M114.5873715472936,-17.205538153675743L118.15232075258596,-16.604402713834887M116.36984293477414,-16.904969449586474L187.9018515455819,-0.5643929599627208M57.23132338937337,-128.17445111209926L53.66637418408103,-128.7755865519401M53.66637418408103,-128.7755865519401L-9.698667318809207,-35.29234265775968M57.23132338937337,-128.17445111209926L-6.133718113516859,-34.69120721791883" style="fill:none;stroke:rgb(0,0,0);stroke-width:1;stroke-linecap:round"></path><path d="M119.98554348258081,-22.239254253002873L116.3698461499398,-16.904970433755317L187.90184651414577,-0.5643930478432954z" style="fill:rgb(255,187,187); fill-opacity: 0.4"></path><path d="M-24.25302763496135,-113.11457403064531L-24.25302763496136,22.534287590935516L-74.37723371146062,-39.16570142653262z" style="fill:rgb(238,238,238); fill-opacity: 0.4"></path><path d="M116.3698461499398,-16.904970433755317L116.3698461499398,-7.1199730136985435L187.90184651414577,-0.5643930478432954z" style="fill:rgb(255,187,187); fill-opacity: 0.4"></path><path d="M60.988250351820696,166.27990599038964L132.70732313572955,60.47185451745216L132.70732313572955,-133.6182137590365z" style="fill:rgb(238,238,238); fill-opacity: 0.4"></path><path d="M-102.59905986367525,-132.47696927926773L-106.16400906896759,-133.07810471910858M-106.16400906896759,-133.07810471910858L-135.06422048914817,-90.44125877523133" style="fill:none;stroke:rgb(0,0,0);stroke-width:1;stroke-linecap:round"></path><path d="M201.5629097664872,-111.37827431302208L201.56290976648717,69.48688281059744L197.99796056119487,-111.97940975286292z" style="fill:rgb(238,238,238); fill-opacity: 0.4"></path><path d="M-102.59905986367525,-132.47696927926773L-131.49927128385582,-89.84012333539047" style="fill:none;stroke:rgb(0,0,0);stroke-width:1;stroke-linecap:round"></path><path d="M-135.06422048914817,92.40127328987722L-131.49927128385582,93.00240872971808L-131.4992712838558,-89.84012333539047zM-6.133718113516885,136.7907257498181L-9.698667318809227,136.18959030997726L57.231323389373344,43.30748185563768zM202.46466683331138,179.5069574949857L269.29694466704166,80.90845616757369L272.86189387233406,81.50959160741455z" style="fill:rgb(238,238,238); fill-opacity: 0.4"></path><path d="M132.70732313572955,-133.61821375903654L129.14237393043723,-134.21934919887738M129.14237393043723,-134.21934919887738L57.42330114652838,-28.411297725939903M132.70732313572955,-133.61821375903654L60.988250351820724,-27.810162286099043" style="fill:none;stroke:rgb(0,0,0);stroke-width:1;stroke-linecap:round"></path><path d="M-24.25302763496136,22.534287590935516L-74.37723371146063,96.48316019504821L-74.37723371146062,-39.16570142653262zM-131.4992712838558,-89.84012333539047L-131.49927128385582,93.00240872971808L-102.59905986367522,-132.47696927926773zM53.66637418408103,-128.7755865519401L53.66637418408101,42.70634641579683L-9.698667318809205,-35.29234265775968zM272.86189387233406,-99.35556551620495L272.86189387233406,81.50959160741455L269.2969446670417,-99.95670095604581zM60.988250351820696,166.27990599038964L57.42330114652836,165.6787705505488L132.70732313572955,60.47185451745216zM134.73063193275686,168.08538413800943L201.56290976648717,69.48688281059744L201.5629097664872,-111.37827431302208zM-70.81228450616828,-38.56456598669177L-20.688078429669,-112.51343859080445L-24.25302763496135,-113.11457403064531zM-131.4992712838558,-89.84012333539047L-102.59905986367522,-132.47696927926773L-106.16400906896759,-133.07810471910858z" style="fill:rgb(238,238,238); fill-opacity: 0.4"></path><path d="M-74.3772337114606,-39.16570142653262L-74.37723371146063,96.48316019504821M-74.37723371146063,96.48316019504821L-70.81228450616828,97.08429563488906M-70.81228450616828,-38.56456598669177L-70.81228450616828,97.08429563488906M350.2047992145448,176.5309286762131L325.4944542417668,172.36417531216003M325.4944542417668,-76.32542506451752L325.4944542417668,172.36417531216003M325.4944542417668,172.36417531216003L317.14041951255047,184.68898797808654M201.5629097664872,-111.37827431302208L197.99796056119482,-111.97940975286292M197.99796056119482,-111.97940975286292L131.1656827274645,-13.38090842545091" style="fill:none;stroke:rgb(0,0,0);stroke-width:1;stroke-linecap:round"></path><path d="M129.1423739304372,-134.21934919887738L129.1423739304372,59.870719077611305L57.42330114652838,-28.411297725939896z" style="fill:rgb(238,238,238); fill-opacity: 0.4"></path><path d="M201.5629097664872,-111.37827431302208L134.73063193275686,-12.779772985610055M-56.84435318138948,3.8365917349001766L-60.409302386681816,3.2354562950593206M-60.409302386681816,-13.072872738368645L-60.409302386681816,3.2354562950593206M-60.409302386681816,3.2354562950593206L-66.43546460775016,12.125929327138586" style="fill:none;stroke:rgb(0,0,0);stroke-width:1;stroke-linecap:round"></path><path d="M53.66637418408101,42.70634641579683L-9.698667318809227,136.18959030997726L-9.698667318809205,-35.29234265775968z" style="fill:rgb(238,238,238); fill-opacity: 0.4"></path><path d="M-58.62682639072824,-12.772304540217414L-58.62682639072824,3.53602371556882M-58.62682639072824,3.53602371556882L-64.6529886117966,12.426496747648084M-58.62682639072824,3.53602371556882L5.932497327379584,13.921411944222712M-56.84435318138948,-12.471737298527787L-56.84435318138948,3.8365917349001766M-56.84435318138948,3.8365917349001766L-62.87051540245783,12.727064766979446M350.20479921454483,-72.15867170046445L350.2047992145448,176.5309286762131M350.2047992145448,176.5309286762131L341.8507644853285,188.8557413421396" style="fill:none;stroke:rgb(0,0,0);stroke-width:1;stroke-linecap:round"></path><path d="M-135.06422048914817,-90.44125877523132L-135.06422048914817,92.40127328987722L-131.4992712838558,-89.84012333539047z" style="fill:rgb(238,238,238); fill-opacity: 0.4"></path><path d="M-56.84435318138948,3.836591734900177L-60.40930238668183,3.2354562950593198L-60.409302386681816,-13.072872738368645z" style="fill:rgb(153,221,255); fill-opacity: 0.4"></path><path d="M-70.81228450616828,-38.56456598669177L-70.81228450616828,97.08429563488907L-20.688078429669,-112.51343859080445zM317.14041951255047,184.68898797808654L325.4944542417668,172.36417531216003L350.2047992145448,176.5309286762131z" style="fill:rgb(238,238,238); fill-opacity: 0.4"></path><path d="M-66.43546460775018,12.125929327138586L-60.40930238668183,3.2354562950593198L-56.84435318138948,3.836591734900177zM-56.844353181389465,-12.471737298527787L-56.84435318138948,3.836591734900177L-60.409302386681816,-13.072872738368645z" style="fill:rgb(153,221,255); fill-opacity: 0.4"></path><path d="M206.0296160386037,180.10809293482657L272.86189387233406,81.50959160741455L272.86189387233406,-99.35556551620495zM134.73063193275686,168.08538413800943L131.1656827274645,167.48424869816859L201.56290976648717,69.48688281059744z" style="fill:rgb(238,238,238); fill-opacity: 0.4"></path><path d="M-58.62682778403564,-12.772305018448213L-58.62682778403565,3.5360240149797493L-64.652990005104,12.426497047059017z" style="fill:rgb(255,187,187); fill-opacity: 0.4"></path><path d="M-62.87051540245783,12.727064766979446L-56.84435318138948,3.836591734900177L-56.844353181389465,-12.471737298527787z" style="fill:rgb(153,221,255); fill-opacity: 0.4"></path><path d="M-56.84435318138948,-12.471737298527787L-60.409302386681816,-13.072872738368645M-60.409302386681816,-13.072872738368645L-66.43546460775016,-4.182399706289375M-58.62682639072824,-12.772304540217414L-64.65298861179659,-3.881831508138151M-58.62682639072824,-12.772304540217414L5.932497327379584,13.921411944222712M-56.84435318138948,-12.471737298527787L-62.87051540245783,-3.581264266448519" style="fill:none;stroke:rgb(0,0,0);stroke-width:1;stroke-linecap:round"></path><path d="M-62.87051540245783,12.727064766979446L-66.43546460775018,12.125929327138586L-56.84435318138948,3.836591734900177zM-60.409302386681816,-13.072872738368645L-60.40930238668183,3.2354562950593198L-66.43546460775016,-4.1823997062893765z" style="fill:rgb(153,221,255); fill-opacity: 0.4"></path><path d="M-6.1337181135168635,-34.69120721791883L57.231323389373365,-128.17445111209923L53.66637418408103,-128.7755865519401zM-135.06422048914817,-90.44125877523132L-131.4992712838558,-89.84012333539047L-106.16400906896759,-133.07810471910858z" style="fill:rgb(238,238,238); fill-opacity: 0.4"></path><path d="M-60.40930238668183,3.2354562950593198L-66.43546460775018,12.125929327138586L-66.43546460775016,-4.1823997062893765z" style="fill:rgb(153,221,255); fill-opacity: 0.4"></path><path d="M341.8507644853285,188.8557413421396L317.14041951255047,184.68898797808654L350.2047992145448,176.5309286762131z" style="fill:rgb(238,238,238); fill-opacity: 0.4"></path><path d="M-62.87051540245783,-3.5812642664485193L-56.844353181389465,-12.471737298527787L-60.409302386681816,-13.072872738368645z" style="fill:rgb(153,221,255); fill-opacity: 0.4"></path><path d="M-66.43546460775016,-4.182399706289375L-66.43546460775016,12.125929327138586M-66.43546460775016,12.125929327138586L-62.87051540245783,12.727064766979446M-64.6529886117966,12.426496747648084L-64.65298861179659,-3.881831508138151M-64.6529886117966,12.426496747648084L5.932497327379584,13.921411944222712M-62.87051540245783,-3.581264266448519L-62.87051540245783,12.727064766979446M317.1404195125505,-64.00061239859102L317.14041951255047,184.68898797808654M317.14041951255047,184.68898797808654L341.8507644853285,188.8557413421396" style="fill:none;stroke:rgb(0,0,0);stroke-width:1;stroke-linecap:round"></path><path d="M-58.62682778403564,-12.772305018448213L-64.652990005104,12.426497047059017L-64.652990005104,-3.8818319863689474z" style="fill:rgb(255,187,187); fill-opacity: 0.4"></path><path d="M-62.87051540245783,-3.5812642664485193L-62.87051540245783,12.727064766979446L-56.844353181389465,-12.471737298527787z" style="fill:rgb(153,221,255); fill-opacity: 0.4"></path><path d="M-58.62682778403565,3.5360240149797493L-58.62682778403564,-12.772305018448213L5.932497425570303,13.921412933313515z" style="fill:rgb(255,187,187); fill-opacity: 0.4"></path><path d="M272.86189387233406,-99.35556551620495L269.29694466704166,-99.9567009560458M269.29694466704166,-99.9567009560458L202.46466683331138,-1.358199628633785" style="fill:none;stroke:rgb(0,0,0);stroke-width:1;stroke-linecap:round"></path><path d="M-66.43546460775018,12.125929327138586L-62.87051540245783,12.727064766979446L-62.87051540245783,-3.5812642664485193z" style="fill:rgb(153,221,255); fill-opacity: 0.4"></path><path d="M272.86189387233406,-99.35556551620495L206.0296160386037,-0.7570641887929315" style="fill:none;stroke:rgb(0,0,0);stroke-width:1;stroke-linecap:round"></path><path d="M-66.43546460775016,-4.1823997062893765L-62.87051540245783,-3.5812642664485193L-60.409302386681816,-13.072872738368645z" style="fill:rgb(153,221,255); fill-opacity: 0.4"></path><path d="M197.99796056119487,-111.97940975286292L197.99796056119482,68.88574737075658L131.1656827274645,-13.380908425450913z" style="fill:rgb(238,238,238); fill-opacity: 0.4"></path><path d="M-64.652990005104,12.426497047059017L-58.62682778403565,3.5360240149797493L5.932497425570303,13.921412933313515z" style="fill:rgb(255,187,187); fill-opacity: 0.4"></path><path d="M-74.37723371146063,96.48316019504821L-70.81228450616828,97.08429563488907L-70.81228450616828,-38.56456598669177z" style="fill:rgb(238,238,238); fill-opacity: 0.4"></path><path d="M-9.698667318809207,-35.29234265775968L-9.698667318809228,136.18959030997726M-9.698667318809228,136.18959030997726L-6.13371811351688,136.7907257498181M22.729246742450343,-35.13955552045536L19.164297537158,-35.74069096029621M19.164297537158,-45.52568838035299L19.164297537158,-35.74069096029621M19.164297537158,-35.74069096029621L15.548600204516983,-30.406407141048653" style="fill:none;stroke:rgb(0,0,0);stroke-width:1;stroke-linecap:round"></path><path d="M-66.43546460775016,-4.1823997062893765L-66.43546460775018,12.125929327138586L-62.87051540245783,-3.5812642664485193z" style="fill:rgb(153,221,255); fill-opacity: 0.4"></path><path d="M20.94677156807218,-45.22511856051424L20.94677156807218,-35.44012425102437M20.94677156807218,-35.44012425102437L17.33107452278097,-30.1058408557076M20.94677156807218,-35.44012425102437L89.8278291972562,-31.136940883518182" style="fill:none;stroke:rgb(0,0,0);stroke-width:1;stroke-linecap:round"></path><path d="M129.1423739304372,59.870719077611305L57.42330114652836,165.6787705505488L57.42330114652838,-28.411297725939896z" style="fill:rgb(238,238,238); fill-opacity: 0.4"></path><path d="M-6.133718113516859,-34.69120721791883L-6.13371811351688,136.7907257498181M22.729246742450343,-44.924552940512136L22.729246742450343,-35.13955552045536M22.729246742450343,-35.13955552045536L19.11354940980933,-29.805271701207797M446.21412822526975,192.72039082563376L421.5037832524917,188.55363746158068M421.5037832524917,-60.13596291509687L421.5037832524917,188.55363746158068M421.5037832524917,188.55363746158068L413.14974852327543,200.8784501275072M341.85076448532857,-59.833859034537944L341.8507644853285,188.8557413421396" style="fill:none;stroke:rgb(0,0,0);stroke-width:1;stroke-linecap:round"></path><path d="M22.729246742450343,-35.13955552045535L19.164297537158,-35.740690960296206L19.164297537158,-45.52568838035299z" style="fill:rgb(153,221,255); fill-opacity: 0.4"></path><path d="M-66.43546460775016,-4.182399706289375L-62.87051540245783,-3.581264266448519M-64.65298861179659,-3.881831508138151L5.932497327379584,13.921411944222712" style="fill:none;stroke:rgb(0,0,0);stroke-width:1;stroke-linecap:round"></path><path d="M15.548600204516987,-30.40640714104865L19.164297537158,-35.740690960296206L22.729246742450343,-35.13955552045535zM22.729246742450343,-44.924552940512136L22.729246742450343,-35.13955552045535L19.164297537158,-45.52568838035299z" style="fill:rgb(153,221,255); fill-opacity: 0.4"></path><path d="M-58.62682778403564,-12.772305018448213L-64.652990005104,-3.8818319863689474L5.932497425570303,13.921412933313515zM20.94677213980417,-45.22512066043256L20.94677213980417,-35.44012324037578L17.331074807163155,-30.105839421128223z" style="fill:rgb(255,187,187); fill-opacity: 0.4"></path><path d="M22.729246742450343,-44.924552940512136L19.164297537158,-45.52568838035299M19.164297537158,-45.52568838035299L15.548600204516987,-40.19140456110543" style="fill:none;stroke:rgb(0,0,0);stroke-width:1;stroke-linecap:round"></path><path d="M19.11354940980933,-29.805271701207797L22.729246742450343,-35.13955552045535L22.729246742450343,-44.924552940512136z" style="fill:rgb(153,221,255); fill-opacity: 0.4"></path><path d="M20.94677156807218,-45.22511856051424L17.331074522780973,-39.89083516519747M20.94677156807218,-45.22511856051424L89.8278291972562,-31.136940883518182M22.729246742450343,-44.924552940512136L19.11354940980933,-39.590269121264576" style="fill:none;stroke:rgb(0,0,0);stroke-width:1;stroke-linecap:round"></path><path d="M19.164297537158,-45.52568838035299L19.164297537158,-35.740690960296206L15.548600204516987,-40.191404561105436zM19.11354940980933,-29.805271701207797L15.548600204516987,-30.40640714104865L22.729246742450343,-35.13955552045535z" style="fill:rgb(153,221,255); fill-opacity: 0.4"></path><path d="M-64.652990005104,-3.8818319863689474L-64.652990005104,12.426497047059017L5.932497425570303,13.921412933313515z" style="fill:rgb(255,187,187); fill-opacity: 0.4"></path><path d="M206.0296160386037,180.10809293482657L202.46466683331138,179.5069574949857L272.86189387233406,81.50959160741455zM-74.37723371146062,-39.16570142653262L-70.81228450616828,-38.56456598669177L-24.25302763496135,-113.11457403064531z" style="fill:rgb(238,238,238); fill-opacity: 0.4"></path><path d="M19.164297537158,-35.740690960296206L15.548600204516987,-30.40640714104865L15.548600204516987,-40.191404561105436z" style="fill:rgb(153,221,255); fill-opacity: 0.4"></path><path d="M446.21412822526975,-55.9692095510438L446.21412822526975,192.72039082563376M446.21412822526975,192.72039082563376L437.8600934960535,205.04520349156024M15.548600204516987,-40.19140456110543L15.548600204516983,-30.406407141048653M15.548600204516983,-30.406407141048653L19.11354940980933,-29.805271701207797" style="fill:none;stroke:rgb(0,0,0);stroke-width:1;stroke-linecap:round"></path><path d="M19.11354940980933,-39.59026912126458L22.729246742450343,-44.924552940512136L19.164297537158,-45.52568838035299z" style="fill:rgb(153,221,255); fill-opacity: 0.4"></path><path d="M17.33107452278097,-30.1058408557076L17.331074522780973,-39.89083516519747M17.33107452278097,-30.1058408557076L89.8278291972562,-31.136940883518182M19.11354940980933,-39.590269121264576L19.11354940980933,-29.805271701207797" style="fill:none;stroke:rgb(0,0,0);stroke-width:1;stroke-linecap:round"></path><path d="M20.94677213980417,-45.22512066043256L17.331074807163155,-30.105839421128223L17.33107480716316,-39.890836841185006z" style="fill:rgb(255,187,187); fill-opacity: 0.4"></path><path d="M413.14974852327543,200.8784501275072L421.50378325249176,188.55363746158068L446.2141282252698,192.72039082563376z" style="fill:rgb(238,238,238); fill-opacity: 0.4"></path><path d="M19.11354940980933,-39.59026912126458L19.11354940980933,-29.805271701207797L22.729246742450343,-44.924552940512136zM15.548600204516987,-30.40640714104865L19.11354940980933,-29.805271701207797L19.11354940980933,-39.59026912126458zM15.548600204516987,-40.191404561105436L19.11354940980933,-39.59026912126458L19.164297537158,-45.52568838035299z" style="fill:rgb(153,221,255); fill-opacity: 0.4"></path><path d="M-6.1337181135168635,-34.69120721791883L-6.133718113516885,136.7907257498181L57.231323389373365,-128.17445111209923z" style="fill:rgb(238,238,238); fill-opacity: 0.4"></path><path d="M15.548600204516987,-40.191404561105436L15.548600204516987,-30.40640714104865L19.11354940980933,-39.59026912126458z" style="fill:rgb(153,221,255); fill-opacity: 0.4"></path><path d="M20.94677213980417,-35.44012324037578L20.94677213980417,-45.22512066043256L89.8278314502319,-31.13693810843453z" style="fill:rgb(255,187,187); fill-opacity: 0.4"></path><path d="M60.98825035182072,-27.810162286099043L132.70732313572955,-133.6182137590365L129.1423739304372,-134.21934919887738z" style="fill:rgb(238,238,238); fill-opacity: 0.4"></path><path d="M17.331074807163155,-30.105839421128223L20.94677213980417,-35.44012324037578L89.8278314502319,-31.13693810843453z" style="fill:rgb(255,187,187); fill-opacity: 0.4"></path><path d="M15.548600204516987,-40.19140456110543L19.11354940980933,-39.590269121264576M17.331074522780973,-39.89083516519747L89.8278291972562,-31.136940883518182M-135.06422048914817,-90.44125877523133L-131.49927128385582,-89.84012333539047" style="fill:none;stroke:rgb(0,0,0);stroke-width:1;stroke-linecap:round"></path><path d="M20.94677213980417,-45.22512066043256L17.33107480716316,-39.890836841185006L89.8278314502319,-31.13693810843453z" style="fill:rgb(255,187,187); fill-opacity: 0.4"></path><path d="M269.2969446670417,-99.95670095604581L269.29694466704166,80.90845616757369L202.4646668333114,-1.358199628633791z" style="fill:rgb(238,238,238); fill-opacity: 0.4"></path><path d="M17.33107480716316,-39.890836841185006L17.331074807163155,-30.105839421128223L89.8278314502319,-31.13693810843453z" style="fill:rgb(255,187,187); fill-opacity: 0.4"></path><path d="M437.8600934960535,205.04520349156024L413.14974852327543,200.8784501275072L446.2141282252698,192.72039082563376zM197.99796056119482,68.88574737075658L131.1656827274645,167.48424869816859L131.1656827274645,-13.380908425450913z" style="fill:rgb(238,238,238); fill-opacity: 0.4"></path><path d="M413.14974852327543,-47.81115024917036L413.14974852327543,200.8784501275072M413.14974852327543,200.8784501275072L437.8600934960535,205.04520349156024M146.4944016393993,133.27175623978397L142.92945243410696,132.6706207999431M142.92945243410696,122.88562337988633L142.92945243410696,132.6706207999431M142.92945243410696,132.6706207999431L139.31375510146594,138.00490461919065" style="fill:none;stroke:rgb(0,0,0);stroke-width:1;stroke-linecap:round"></path><path d="M350.2047992145448,176.5309286762131L325.4944542417668,172.36417531216003L325.4944542417668,-76.32542506451752z" style="fill:rgb(238,238,238); fill-opacity: 0.4"></path><path d="M144.71193192808795,123.1861888903093L144.71193192808795,132.97118631036608M144.71193192808795,132.97118631036608L141.09623459544693,138.30547012961364M144.71193192808795,132.97118631036608L214.20305376841236,142.76853601362885M146.4944016393993,123.48675881972719L146.4944016393993,133.27175623978397M146.4944016393993,133.27175623978397L142.8787043067583,138.60604005903153" style="fill:none;stroke:rgb(0,0,0);stroke-width:1;stroke-linecap:round"></path><path d="M-74.37723371146062,-39.16570142653262L-74.37723371146063,96.48316019504821L-70.81228450616828,-38.56456598669177z" style="fill:rgb(238,238,238); fill-opacity: 0.4"></path><path d="M57.42330114652838,-28.411297725939903L57.42330114652836,165.6787705505488M57.42330114652836,165.6787705505488L60.98825035182071,166.27990599038964" style="fill:none;stroke:rgb(0,0,0);stroke-width:1;stroke-linecap:round"></path><path d="M146.4944016393993,133.27175623978394L142.92945243410696,132.6706207999431L142.92945243410696,122.88562337988634z" style="fill:rgb(153,221,255); fill-opacity: 0.4"></path><path d="M60.988250351820724,-27.810162286099043L60.98825035182071,166.27990599038964" style="fill:none;stroke:rgb(0,0,0);stroke-width:1;stroke-linecap:round"></path><path d="M139.31375510146597,138.00490461919068L142.92945243410696,132.6706207999431L146.4944016393993,133.27175623978394zM146.4944016393993,123.4867588197272L146.4944016393993,133.27175623978394L142.92945243410696,122.88562337988634z" style="fill:rgb(153,221,255); fill-opacity: 0.4"></path><path d="M144.71192703675314,123.18619109980676L144.71192703675314,132.97118851986352L141.0962297041121,138.3054723391111z" style="fill:rgb(255,187,187); fill-opacity: 0.4"></path><path d="M146.4944016393993,123.48675881972719L142.92945243410696,122.88562337988633M142.92945243410696,122.88562337988633L139.31375510146594,128.21990719913387" style="fill:none;stroke:rgb(0,0,0);stroke-width:1;stroke-linecap:round"></path><path d="M142.8787043067583,138.60604005903153L146.4944016393993,133.27175623978394L146.4944016393993,123.4867588197272z" style="fill:rgb(153,221,255); fill-opacity: 0.4"></path><path d="M144.71193192808795,123.1861888903093L141.09623459544693,128.52047270955686M144.71193192808795,123.1861888903093L214.20305376841236,142.76853601362885M146.4944016393993,123.48675881972719L142.8787043067583,128.82104263897475" style="fill:none;stroke:rgb(0,0,0);stroke-width:1;stroke-linecap:round"></path><path d="M142.92945243410696,122.88562337988634L142.92945243410696,132.6706207999431L139.31375510146597,128.2199071991339zM142.8787043067583,138.60604005903153L139.31375510146597,138.00490461919068L146.4944016393993,133.27175623978394z" style="fill:rgb(153,221,255); fill-opacity: 0.4"></path><path d="M437.8600934960535,-43.64439688511729L437.8600934960535,205.04520349156024" style="fill:none;stroke:rgb(0,0,0);stroke-width:1;stroke-linecap:round"></path><path d="M142.92945243410696,132.6706207999431L139.31375510146597,138.00490461919068L139.31375510146597,128.2199071991339z" style="fill:rgb(153,221,255); fill-opacity: 0.4"></path><path d="M139.31375510146594,128.21990719913387L139.31375510146594,138.00490461919065M139.31375510146594,138.00490461919065L142.8787043067583,138.60604005903153" style="fill:none;stroke:rgb(0,0,0);stroke-width:1;stroke-linecap:round"></path><path d="M142.8787043067583,128.82104263897475L146.4944016393993,123.4867588197272L142.92945243410696,122.88562337988634z" style="fill:rgb(153,221,255); fill-opacity: 0.4"></path><path d="M141.09623459544693,138.30547012961364L141.09623459544693,128.52047270955686M141.09623459544693,138.30547012961364L214.20305376841236,142.76853601362885" style="fill:none;stroke:rgb(0,0,0);stroke-width:1;stroke-linecap:round"></path><path d="M-9.698667318809227,136.18959030997726L-6.133718113516885,136.7907257498181L-6.1337181135168635,-34.69120721791883z" style="fill:rgb(238,238,238); fill-opacity: 0.4"></path><path d="M142.8787043067583,128.82104263897475L142.8787043067583,138.60604005903153" style="fill:none;stroke:rgb(0,0,0);stroke-width:1;stroke-linecap:round"></path><path d="M144.71192703675314,123.18619109980676L141.0962297041121,138.3054723391111L141.0962297041121,128.52047491905432z" style="fill:rgb(255,187,187); fill-opacity: 0.4"></path><path d="M134.7306319327569,-12.779772985610055L201.5629097664872,-111.37827431302208L197.99796056119487,-111.97940975286292z" style="fill:rgb(238,238,238); fill-opacity: 0.4"></path><path d="M142.8787043067583,128.82104263897475L142.8787043067583,138.60604005903153L146.4944016393993,123.4867588197272zM139.31375510146597,138.00490461919068L142.8787043067583,138.60604005903153L142.8787043067583,128.82104263897475z" style="fill:rgb(153,221,255); fill-opacity: 0.4"></path><path d="M144.71192703675314,132.97118851986352L144.71192703675314,123.18619109980676L214.2030624762795,142.76854051627606z" style="fill:rgb(255,187,187); fill-opacity: 0.4"></path><path d="M325.4944542417668,172.36417531216003L317.14041951255047,184.68898797808654L317.1404195125505,-64.00061239859102z" style="fill:rgb(238,238,238); fill-opacity: 0.4"></path><path d="M139.31375510146597,128.2199071991339L142.8787043067583,128.82104263897475L142.92945243410696,122.88562337988634z" style="fill:rgb(153,221,255); fill-opacity: 0.4"></path><path d="M341.8507644853285,188.8557413421396L350.2047992145448,176.5309286762131L350.20479921454483,-72.15867170046445z" style="fill:rgb(238,238,238); fill-opacity: 0.4"></path><path d="M253.5834020105541,42.760208105533L293.986159670534,49.57307642372937" style="fill:none;stroke:rgb(0,0,0);stroke-width:1;stroke-linecap:round"></path><path d="M141.0962297041121,138.3054723391111L144.71192703675314,132.97118851986352L214.2030624762795,142.76854051627606z" style="fill:rgb(255,187,187); fill-opacity: 0.4"></path><path d="M542.2234572359948,197.21899876786966L517.5131122632167,193.0522454038166M517.5131122632167,-32.25564655849146L517.5131122632167,193.0522454038166M517.5131122632167,193.0522454038166L509.1590775340005,205.3770580697431" style="fill:none;stroke:rgb(0,0,0);stroke-width:1;stroke-linecap:round"></path><path d="M139.31375510146597,128.2199071991339L139.31375510146597,138.00490461919068L142.8787043067583,128.82104263897475z" style="fill:rgb(153,221,255); fill-opacity: 0.4"></path><path d="M139.31375510146594,128.21990719913387L142.8787043067583,128.82104263897475M141.09623459544693,128.52047270955686L214.20305376841236,142.76853601362885" style="fill:none;stroke:rgb(0,0,0);stroke-width:1;stroke-linecap:round"></path><path d="M60.98825035182072,-27.810162286099043L60.988250351820696,166.27990599038964L132.70732313572955,-133.6182137590365z" style="fill:rgb(238,238,238); fill-opacity: 0.4"></path><path d="M144.71192703675314,123.18619109980676L141.0962297041121,128.52047491905432L214.2030624762795,142.76854051627606zM141.0962297041121,128.52047491905432L141.0962297041121,138.3054723391111L214.2030624762795,142.76854051627606z" style="fill:rgb(255,187,187); fill-opacity: 0.4"></path><path d="M269.29694466704166,80.90845616757369L202.46466683331138,179.5069574949857L202.4646668333114,-1.358199628633791z" style="fill:rgb(238,238,238); fill-opacity: 0.4"></path><path d="M131.1656827274645,-13.38090842545091L131.1656827274645,167.48424869816859M131.1656827274645,167.48424869816859L134.73063193275684,168.08538413800943M542.2234572359948,-28.088893194438395L542.2234572359948,197.21899876786966M542.2234572359948,197.21899876786966L533.8694225067785,209.54381143379618M134.73063193275686,-12.779772985610055L134.73063193275684,168.08538413800943" style="fill:none;stroke:rgb(0,0,0);stroke-width:1;stroke-linecap:round"></path><path d="M-9.698667318809205,-35.29234265775968L-6.1337181135168635,-34.69120721791883L53.66637418408103,-128.7755865519401zM509.1590775340004,205.3770580697431L517.5131122632167,193.0522454038166L542.2234572359948,197.21899876786966zM317.14041951255047,184.68898797808654L341.8507644853285,188.8557413421396L341.85076448532857,-59.833859034537944z" style="fill:rgb(238,238,238); fill-opacity: 0.4"></path><path d="M-74.3772337114606,-39.16570142653262L-70.81228450616828,-38.56456598669177" style="fill:none;stroke:rgb(0,0,0);stroke-width:1;stroke-linecap:round"></path><path d="M291.12054917477275,56.32052316173056L293.986159670534,57.72724094044335L317.75248770581635,53.58064602266841z" style="fill:rgb(0,0,0)"></path><path d="M446.2141282252698,192.72039082563376L421.50378325249176,188.55363746158068L421.50378325249176,-60.13596291509687z" style="fill:rgb(238,238,238); fill-opacity: 0.4"></path><path d="M295.75720428624504,40.36337425768755L292.21511505482295,45.58906311801733L317.75248770581635,53.58064602266841zM292.21511505482295,45.58906311801733L291.12054917477275,56.32052316173056L317.75248770581635,53.58064602266841z" style="fill:rgb(0,0,0)"></path><path d="M206.0296160386037,-0.7570641887929325L272.86189387233406,-99.35556551620495L269.2969446670417,-99.95670095604581zM533.8694225067784,209.54381143379618L509.1590775340004,205.3770580697431L542.2234572359948,197.21899876786966zM134.7306319327569,-12.779772985610055L134.73063193275686,168.08538413800943L201.5629097664872,-111.37827431302208z" style="fill:rgb(238,238,238); fill-opacity: 0.4"></path><path d="M509.1590775340005,-19.93083389256496L509.1590775340005,205.3770580697431M509.1590775340005,205.3770580697431L533.8694225067785,209.54381143379618" style="fill:none;stroke:rgb(0,0,0);stroke-width:1;stroke-linecap:round"></path><path d="M57.42330114652836,165.6787705505488L60.988250351820696,166.27990599038964L60.98825035182072,-27.810162286099043zM421.50378325249176,188.55363746158068L413.14974852327543,200.8784501275072L413.14974852327543,-47.81115024917036zM437.8600934960535,205.04520349156024L446.2141282252698,192.72039082563376L446.2141282252698,-55.9692095510438z" style="fill:rgb(238,238,238); fill-opacity: 0.4"></path><path d="M349.59273102127906,58.94967025495366L389.99548868125896,65.76253857315002M202.46466683331138,-1.358199628633785L202.46466683331136,179.5069574949857M202.46466683331136,179.5069574949857L206.0296160386037,180.10809293482654M533.8694225067785,-15.76408052851189L533.8694225067785,209.54381143379618M206.0296160386037,-0.7570641887929315L206.0296160386037,180.10809293482654" style="fill:none;stroke:rgb(0,0,0);stroke-width:1;stroke-linecap:round"></path><path d="M-9.698667318809205,-35.29234265775968L-9.698667318809227,136.18959030997726L-6.1337181135168635,-34.69120721791883zM350.20479921454483,-72.15867170046445L350.2047992145448,176.5309286762131L325.4944542417668,-76.32542506451752zM413.14974852327543,200.8784501275072L437.8600934960535,205.04520349156024L437.8600934960535,-43.64439688511729zM57.42330114652838,-28.411297725939896L60.98825035182072,-27.810162286099043L129.1423739304372,-134.21934919887738zM325.4944542417668,-76.32542506451752L325.4944542417668,172.36417531216003L317.1404195125505,-64.00061239859102zM206.0296160386037,-0.7570641887929325L206.0296160386037,180.10809293482657L272.86189387233406,-99.35556551620495z" style="fill:rgb(238,238,238); fill-opacity: 0.4"></path><path d="M387.1298781854977,72.50998531115123L389.99548868125896,73.916703089864L413.76181671654126,69.77010817208907z" style="fill:rgb(0,0,0)"></path><path d="M131.1656827274645,167.48424869816859L134.73063193275686,168.08538413800943L134.7306319327569,-12.779772985610055z" style="fill:rgb(238,238,238); fill-opacity: 0.4"></path><path d="M391.76653329697007,56.5528364071082L388.22444406554786,61.778525267437985L413.76181671654126,69.77010817208907z" style="fill:rgb(0,0,0)"></path><path d="M542.2234572359948,197.21899876786966L517.5131122632167,193.0522454038166L517.5131122632167,-32.25564655849148z" style="fill:rgb(238,238,238); fill-opacity: 0.4"></path><path d="M388.22444406554786,61.778525267437985L387.1298781854977,72.50998531115123L413.76181671654126,69.77010817208907z" style="fill:rgb(0,0,0)"></path><path d="M341.85076448532857,-59.833859034537944L341.8507644853285,188.8557413421396L350.20479921454483,-72.15867170046445zM131.1656827274645,-13.380908425450913L134.7306319327569,-12.779772985610055L197.99796056119487,-111.97940975286292z" style="fill:rgb(238,238,238); fill-opacity: 0.4"></path><path d="M445.6020600320041,75.13913240437432L486.00481769198404,81.95200072257069" style="fill:none;stroke:rgb(0,0,0);stroke-width:1;stroke-linecap:round"></path><path d="M317.1404195125505,-64.00061239859102L317.14041951255047,184.68898797808654L341.85076448532857,-59.833859034537944zM517.5131122632167,193.0522454038166L509.1590775340004,205.3770580697431L509.1590775340004,-19.93083389256497zM533.8694225067784,209.54381143379618L542.2234572359948,197.21899876786966L542.2234572359948,-28.088893194438395z" style="fill:rgb(238,238,238); fill-opacity: 0.4"></path><path d="M-9.698667318809207,-35.29234265775968L-6.133718113516859,-34.69120721791883" style="fill:none;stroke:rgb(0,0,0);stroke-width:1;stroke-linecap:round"></path><path d="M202.46466683331138,179.5069574949857L206.0296160386037,180.10809293482657L206.0296160386037,-0.7570641887929325zM57.42330114652838,-28.411297725939896L57.42330114652836,165.6787705505488L60.98825035182072,-27.810162286099043zM446.2141282252698,-55.9692095510438L446.2141282252698,192.72039082563376L421.50378325249176,-60.13596291509687zM421.50378325249176,-60.13596291509687L421.50378325249176,188.55363746158068L413.14974852327543,-47.81115024917036z" style="fill:rgb(238,238,238); fill-opacity: 0.4"></path><path d="M638.2327862467197,143.79313054061075L613.5224412739417,139.6263771765577M613.5224412739417,53.549145967608766L613.5224412739417,139.6263771765577M613.5224412739417,139.6263771765577L605.1684065447254,151.95118984248418" style="fill:none;stroke:rgb(0,0,0);stroke-width:1;stroke-linecap:round"></path><path d="M509.1590775340004,205.3770580697431L533.8694225067784,209.54381143379618L533.8694225067784,-15.76408052851189z" style="fill:rgb(238,238,238); fill-opacity: 0.4"></path><path d="M483.1392071962227,88.69944746057188L486.00481769198393,90.10616523928466L509.77114572726623,85.95957032150972zM487.77586230769504,72.74229855652887L484.2337730762728,77.96798741685863L509.77114572726623,85.95957032150972zM484.2337730762728,77.96798741685863L483.1392071962227,88.69944746057188L509.77114572726623,85.95957032150972z" style="fill:rgb(0,0,0)"></path><path d="M202.4646668333114,-1.358199628633791L206.0296160386037,-0.7570641887929325L269.2969446670417,-99.95670095604581z" style="fill:rgb(238,238,238); fill-opacity: 0.4"></path><path d="M638.2327862467197,57.71589933166183L638.2327862467197,143.79313054061075M638.2327862467197,143.79313054061075L629.8787515175034,156.11794320653723" style="fill:none;stroke:rgb(0,0,0);stroke-width:1;stroke-linecap:round"></path><path d="M131.1656827274645,-13.380908425450913L131.1656827274645,167.48424869816859L134.7306319327569,-12.779772985610055zM605.1684065447254,151.95118984248418L613.5224412739417,139.6263771765577L638.2327862467198,143.79313054061075z" style="fill:rgb(238,238,238); fill-opacity: 0.4"></path><path d="M350.20479921454483,-72.15867170046445L325.4944542417668,-76.32542506451752M325.4944542417668,-76.32542506451752L317.1404195125505,-64.00061239859102" style="fill:none;stroke:rgb(0,0,0);stroke-width:1;stroke-linecap:round"></path><path d="M437.8600934960535,-43.64439688511729L437.8600934960535,205.04520349156024L446.2141282252698,-55.9692095510438z" style="fill:rgb(238,238,238); fill-opacity: 0.4"></path><path d="M541.6113890427289,91.32859455379497L582.0141467027088,98.14146287199134" style="fill:none;stroke:rgb(0,0,0);stroke-width:1;stroke-linecap:round"></path><path d="M413.14974852327543,-47.81115024917036L413.14974852327543,200.8784501275072L437.8600934960535,-43.64439688511729zM638.2327862467198,143.79313054061075L613.5224412739417,139.6263771765577L613.5224412739417,53.549145967608766zM629.8787515175034,156.11794320653723L605.1684065447254,151.95118984248418L638.2327862467198,143.79313054061075z" style="fill:rgb(238,238,238); fill-opacity: 0.4"></path><path d="M350.20479921454483,-72.15867170046445L341.85076448532857,-59.833859034537944M605.1684065447254,65.87395863353525L605.1684065447254,151.95118984248418M605.1684065447254,151.95118984248418L629.8787515175034,156.11794320653723" style="fill:none;stroke:rgb(0,0,0);stroke-width:1;stroke-linecap:round"></path><path d="M542.2234572359948,-28.088893194438395L542.2234572359948,197.21899876786966L517.5131122632167,-32.25564655849148zM341.85076448532857,-59.833859034537944L350.20479921454483,-72.15867170046445L325.4944542417668,-76.32542506451752zM517.5131122632167,-32.25564655849148L517.5131122632167,193.0522454038166L509.1590775340004,-19.93083389256497zM317.1404195125505,-64.00061239859102L341.85076448532857,-59.833859034537944L325.4944542417668,-76.32542506451752z" style="fill:rgb(238,238,238); fill-opacity: 0.4"></path><path d="M629.8787515175034,70.04071199758833L629.8787515175034,156.11794320653723" style="fill:none;stroke:rgb(0,0,0);stroke-width:1;stroke-linecap:round"></path><path d="M202.4646668333114,-1.358199628633791L202.46466683331138,179.5069574949857L206.0296160386037,-0.7570641887929325z" style="fill:rgb(238,238,238); fill-opacity: 0.4"></path><path d="M579.1485362069477,104.88890960999252L582.0141467027089,106.29562738870531L605.7804747379911,102.14903247093035z" style="fill:rgb(0,0,0)"></path><path d="M613.5224412739417,139.6263771765577L605.1684065447254,151.95118984248418L605.1684065447254,65.87395863353525zM629.8787515175034,156.11794320653723L638.2327862467198,143.79313054061075L638.2327862467198,57.71589933166183z" style="fill:rgb(238,238,238); fill-opacity: 0.4"></path><path d="M57.42330114652838,-28.411297725939903L60.988250351820724,-27.810162286099043" style="fill:none;stroke:rgb(0,0,0);stroke-width:1;stroke-linecap:round"></path><path d="M583.78519131842,88.9317607059495L580.2431020869979,94.15744956627927L605.7804747379911,102.14903247093035z" style="fill:rgb(0,0,0)"></path><path d="M317.1404195125505,-64.00061239859102L341.85076448532857,-59.833859034537944" style="fill:none;stroke:rgb(0,0,0);stroke-width:1;stroke-linecap:round"></path><path d="M580.2431020869979,94.15744956627927L579.1485362069477,104.88890960999252L605.7804747379911,102.14903247093035z" style="fill:rgb(0,0,0)"></path><path d="M638.2327862467198,57.71589933166183L638.2327862467198,143.79313054061075L613.5224412739417,53.549145967608766zM533.8694225067784,-15.76408052851189L533.8694225067784,209.54381143379618L542.2234572359948,-28.088893194438395z" style="fill:rgb(238,238,238); fill-opacity: 0.4"></path><path d="M446.21412822526975,-55.9692095510438L421.5037832524917,-60.13596291509687M421.5037832524917,-60.13596291509687L413.14974852327543,-47.81115024917036" style="fill:none;stroke:rgb(0,0,0);stroke-width:1;stroke-linecap:round"></path><path d="M613.5224412739417,53.549145967608766L613.5224412739417,139.6263771765577L605.1684065447254,65.87395863353525zM509.1590775340004,-19.93083389256497L509.1590775340004,205.3770580697431L533.8694225067784,-15.76408052851189zM605.1684065447254,151.95118984248418L629.8787515175034,156.11794320653723L629.8787515175034,70.04071199758833z" style="fill:rgb(238,238,238); fill-opacity: 0.4"></path><path d="M131.1656827274645,-13.38090842545091L134.73063193275686,-12.779772985610055M446.21412822526975,-55.9692095510438L437.8600934960535,-43.64439688511729M638.2327862467197,57.71589933166183L613.5224412739417,53.549145967608766M613.5224412739417,53.549145967608766L605.1684065447254,65.87395863353525" style="fill:none;stroke:rgb(0,0,0);stroke-width:1;stroke-linecap:round"></path><path d="M437.8600934960535,-43.64439688511729L446.2141282252698,-55.9692095510438L421.50378325249176,-60.13596291509687zM629.8787515175034,70.04071199758833L629.8787515175034,156.11794320653723L638.2327862467198,57.71589933166183zM413.14974852327543,-47.81115024917036L437.8600934960535,-43.64439688511729L421.50378325249176,-60.13596291509687z" style="fill:rgb(238,238,238); fill-opacity: 0.4"></path><path d="M638.2327862467197,57.71589933166183L629.8787515175034,70.04071199758833" style="fill:none;stroke:rgb(0,0,0);stroke-width:1;stroke-linecap:round"></path><path d="M605.1684065447254,65.87395863353525L605.1684065447254,151.95118984248418L629.8787515175034,70.04071199758833z" style="fill:rgb(238,238,238); fill-opacity: 0.4"></path><path d="M542.2234572359948,-28.088893194438395L517.5131122632167,-32.25564655849146M517.5131122632167,-32.25564655849146L509.1590775340005,-19.93083389256496M413.14974852327543,-47.81115024917036L437.8600934960535,-43.64439688511729" style="fill:none;stroke:rgb(0,0,0);stroke-width:1;stroke-linecap:round"></path><path d="M629.8787515175034,70.04071199758833L638.2327862467198,57.71589933166183L613.5224412739417,53.549145967608766z" style="fill:rgb(238,238,238); fill-opacity: 0.4"></path><path d="M202.46466683331138,-1.358199628633785L206.0296160386037,-0.7570641887929315" style="fill:none;stroke:rgb(0,0,0);stroke-width:1;stroke-linecap:round"></path><path d="M605.1684065447254,65.87395863353525L629.8787515175034,70.04071199758833L613.5224412739417,53.549145967608766z" style="fill:rgb(238,238,238); fill-opacity: 0.4"></path><path d="M542.2234572359948,-28.088893194438395L533.8694225067785,-15.76408052851189M605.1684065447254,65.87395863353525L629.8787515175034,70.04071199758833" style="fill:none;stroke:rgb(0,0,0);stroke-width:1;stroke-linecap:round"></path><path d="M533.8694225067784,-15.76408052851189L542.2234572359948,-28.088893194438395L517.5131122632167,-32.25564655849148zM509.1590775340004,-19.93083389256497L533.8694225067784,-15.76408052851189L517.5131122632167,-32.25564655849148z" style="fill:rgb(238,238,238); fill-opacity: 0.4"></path><path d="M509.1590775340005,-19.93083389256496L533.8694225067785,-15.76408052851189" style="fill:none;stroke:rgb(0,0,0);stroke-width:1;stroke-linecap:round"></path></svg>